<svg width="30" height="30" viewBox="0 0 30 30" fill="none" xmlns="http://www.w3.org/2000/svg">
    <path fill-rule="evenodd" clip-rule="evenodd" d="M27.885 16.4998L21.9992 22.3856L16.1134 16.4998L27.885 16.4998ZM14.7428 15.4998L14.9281 15.3145L21.2921 8.95056L21.9992 8.24346L22.7063 8.95056L29.0702 15.3145L29.7773 16.0216L29.0702 16.7287L22.7063 23.0927L21.9992 23.7998L21.2921 23.0927L14.9281 16.7287L14.6991 16.4998H8.70708L4.86827 20.3386L4.16117 19.6315L7.29287 16.4998L4.70708 16.4998L0.868271 20.3386L0.161165 19.6315L8.64645 11.1462L9.35355 11.8533L5.70708 15.4998H8.29287L12.6464 11.1462L13.3536 11.8533L9.70708 15.4998H14.7428ZM27.8413 15.4998L21.9992 9.65767L16.1571 15.4998L27.8413 15.4998Z" fill="#D0D6D7"/>
</svg>
