<svg width="30" height="30" viewBox="0 0 30 30" fill="none" xmlns="http://www.w3.org/2000/svg">
    <path fill-rule="evenodd" clip-rule="evenodd" d="M4.21504 15.8L10.0008 21.5858L15.7866 15.8L11.4122 15.8C11.1816 16.497 10.5247 17 9.75034 17C8.97598 17 8.31909 16.497 8.08852 15.8H4.21504ZM11.4419 14.8C11.2434 14.0516 10.5613 13.5 9.75034 13.5C8.93942 13.5 8.25732 14.0516 8.05874 14.8L4.0587 14.8L10.0008 8.85786L15.943 14.8L11.4419 14.8ZM17.3572 14.8L17.0719 14.5147L10.7079 8.15075L10.0008 7.44365L9.29372 8.15075L2.92976 14.5147L2.22266 15.2218L2.92976 15.9289L9.29372 22.2929L10.0008 23L10.7079 22.2929L17.0719 15.9289L17.2008 15.8L26.4934 15.8L19.6469 22.6464L20.354 23.3535L28.1322 15.5754L28.4858 15.2218L28.1322 14.8683L20.354 7.09009L19.6469 7.7972L26.6497 14.8L17.3572 14.8ZM27.0008 15.1511V15.2925L27.0716 15.2218L27.0008 15.1511Z" fill="white"/>
</svg>
