<svg width="31" height="30" viewBox="0 0 31 30" fill="none" xmlns="http://www.w3.org/2000/svg">
    <path fill-rule="evenodd" clip-rule="evenodd" d="M24.8058 23.3931C26.0231 21.9425 26.8797 20.2243 27.3057 18.3791C27.7317 16.5339 27.715 14.6141 27.2568 12.7766C26.7987 10.9392 25.9122 9.23619 24.6698 7.80698C23.8118 6.82001 22.801 5.98294 21.6793 5.32579L23.6131 4.98481L23.4395 4L20.1666 4.5771L20.1086 4.55348L20.0938 4.58992L19.5002 4.69459L19.6677 5.64457L19.659 5.6661L19.6725 5.67155L19.6739 5.6794L19.6864 5.67719C21.2555 6.31616 22.6524 7.31538 23.7641 8.59425C24.8823 9.88054 25.6802 11.4132 26.0925 13.0669C26.2347 13.6375 26.3297 14.217 26.3773 14.7994H23.4975C23.3913 10.4736 19.8514 6.99959 15.5 6.99959C11.1486 6.99959 7.6087 10.4736 7.50246 14.7994H4.70185C4.71569 14.0512 4.80731 13.3039 4.9768 12.5697C5.3602 10.909 6.13119 9.36267 7.22672 8.05707L6.30747 7.28572C5.0902 8.7364 4.23356 10.4546 3.80756 12.2998C3.61755 13.1228 3.51563 13.9606 3.50166 14.7994H3.50049V14.8909C3.49984 14.9631 3.49984 15.0353 3.50049 15.1074V15.7994H3.52671C3.57396 16.5064 3.6839 17.2102 3.85645 17.9022C4.31458 19.7397 5.20109 21.4427 6.44349 22.8719C7.30144 23.8589 8.3123 24.6959 9.43397 25.3531L7.50018 25.6941L7.67383 26.6789L10.9467 26.1018L11.0047 26.1254L11.0194 26.0889L11.6131 25.9843L11.4456 25.0343L11.4543 25.0128L11.4408 25.0073L11.4394 24.9995L11.4269 25.0017C9.85777 24.3627 8.46084 23.3635 7.34914 22.0846C6.23098 20.7983 5.43313 19.2657 5.02081 17.6119C4.87202 17.0152 4.77496 16.4088 4.72969 15.7994H7.53948C7.94077 19.8421 11.3517 22.9996 15.5 22.9996C19.6483 22.9996 23.0592 19.8421 23.4605 15.7994H26.4126C26.404 16.5744 26.312 17.3488 26.1365 18.1092C25.7531 19.7698 24.9821 21.3162 23.8866 22.6218L24.8058 23.3931ZM15.5 7.99959C19.299 7.99959 22.3912 11.026 22.4972 14.7994H17.449C17.2447 13.9118 16.4496 13.25 15.5 13.25C14.5504 13.25 13.7553 13.9118 13.551 14.7994H8.50281C8.60878 11.026 11.701 7.99959 15.5 7.99959ZM13.5764 15.7994H8.54519C8.94208 19.2887 11.9045 21.9996 15.5 21.9996C19.0955 21.9996 22.0579 19.2887 22.4548 15.7994H17.4236C17.1849 16.6368 16.414 17.25 15.5 17.25C14.586 17.25 13.8151 16.6368 13.5764 15.7994Z" fill="white"/>
</svg>
