<svg width="32" height="32" viewBox="0 0 32 32" fill="none" xmlns="http://www.w3.org/2000/svg">
<path fill-rule="evenodd" clip-rule="evenodd" d="M21.916 17.0079L23.8881 17.3407C23.9617 16.9048 24 16.4569 24 16C24 15.5431 23.9617 15.0952 23.8881 14.6593L21.916 14.9921L19.9439 15.3248C19.9805 15.5418 20 15.7671 20 16C20 16.2329 19.9805 16.4582 19.9439 16.6752L21.916 17.0079ZM20.8949 12.529L22.525 11.3703C22.0041 10.6374 21.3626 9.99595 20.6297 9.47495L19.471 11.1051L18.3122 12.7352C18.6804 12.9969 19.0031 13.3196 19.2648 13.6878L20.8949 12.529ZM17.0079 10.084L17.3407 8.11185C16.9048 8.0383 16.4569 8 16 8C15.5431 8 15.0952 8.0383 14.6593 8.11185L14.9921 10.084L15.3248 12.0561C15.5418 12.0195 15.7671 12 16 12C16.2329 12 16.4582 12.0195 16.6752 12.0561L17.0079 10.084ZM12.529 11.1051L11.3703 9.47495C10.6374 9.99595 9.99595 10.6374 9.47495 11.3703L11.1051 12.529L12.7352 13.6878C12.9969 13.3196 13.3196 12.9969 13.6878 12.7352L12.529 11.1051ZM8 16C8 15.5431 8.0383 15.0952 8.11185 14.6593L10.084 14.9921L12.0561 15.3248C12.0195 15.5418 12 15.7671 12 16C12 16.2329 12.0195 16.4582 12.0561 16.6752L10.084 17.0079L8.11185 17.3407C8.0383 16.9048 8 16.4569 8 16ZM11.1051 19.471L9.47495 20.6297C9.99595 21.3626 10.6374 22.0041 11.3703 22.5251L12.529 20.8949L13.6878 19.2648C13.3196 19.0031 12.9969 18.6804 12.7352 18.3122L11.1051 19.471ZM14.9921 21.916L14.6593 23.8881C15.0952 23.9617 15.5431 24 16 24C16.4569 24 16.9048 23.9617 17.3407 23.8881L17.0079 21.916L16.6752 19.9439C16.4582 19.9805 16.2329 20 16 20C15.7671 20 15.5418 19.9805 15.3248 19.9439L14.9921 21.916ZM19.471 20.8949L20.6297 22.525C21.3626 22.0041 22.0041 21.3626 22.5251 20.6297L20.8949 19.471L19.2648 18.3122C19.0031 18.6804 18.6804 19.0031 18.3122 19.2648L19.471 20.8949ZM16 19C17.6569 19 19 17.6569 19 16C19 14.3431 17.6569 13 16 13C14.3431 13 13 14.3431 13 16C13 17.6569 14.3431 19 16 19Z" fill="#759599"/>
</svg>
