<svg width="222" height="2000" viewBox="0 0 222 2000" fill="none" xmlns="http://www.w3.org/2000/svg">
<g opacity="0.7">
<path opacity="0.5" d="M120.645 -9.07439V-18.2205H110.507V-9.07439M120.645 -9.07439H110.507M120.645 -9.07439V3.12048M120.645 -9.07439H130.783V3.12048M110.507 -9.07439V3.12048M110.507 -9.07439H99.3548V3.12048M120.645 3.12048H130.783M120.645 3.12048H110.507M120.645 3.12048V13.2829M130.783 3.12048V13.2829M130.783 3.12048H138.894V13.2829M110.507 3.12048H99.3548M110.507 3.12048V13.2829M99.3548 3.12048H89.2166V13.2829M99.3548 3.12048V13.2829M89.2166 13.2829H99.3548M89.2166 13.2829H81.106V21.4128H89.2166M89.2166 13.2829V21.4128M99.3548 13.2829H110.507M99.3548 13.2829V21.4128M120.645 13.2829H110.507M120.645 13.2829V21.4128M120.645 13.2829H130.783M110.507 13.2829V21.4128M130.783 13.2829H138.894M130.783 13.2829V21.4128M138.894 13.2829H150.046V21.4128H138.894M138.894 13.2829V21.4128M138.894 21.4128H130.783M138.894 21.4128V29.5427H130.783M130.783 21.4128H120.645M130.783 21.4128V29.5427M120.645 21.4128H110.507M120.645 21.4128V29.5427M89.2166 21.4128H99.3548M89.2166 21.4128V29.5427H99.3548M99.3548 21.4128V29.5427M99.3548 21.4128H110.507M99.3548 29.5427H110.507M99.3548 29.5427V41.7376H110.507M110.507 21.4128V29.5427M120.645 29.5427H130.783M120.645 29.5427H110.507M120.645 29.5427V41.7376M130.783 29.5427V41.7376H120.645M110.507 29.5427V41.7376M110.507 41.7376H120.645M110.507 41.7376V51.8999H120.645V41.7376M12.1659 -57.8539V-67H-1.19209e-05V-57.8539H12.1659ZM12.1659 -57.8539V-47.6915H-1.19209e-05V-19.2368H12.1659V-27.3667H19.2627V-37.5291H31.4286V-47.6915H41.5668V-57.8539H49.6774V-67H19.2627V-57.8539H12.1659ZM12.1659 91.5333V80.3546H-1.19209e-05V51.8999H12.1659V60.0299H19.2627V71.2085H31.4286V80.3546H41.5668V91.5333H49.6774V101.696H19.2627V91.5333H12.1659ZM12.1659 91.5333H-1.19209e-05V101.696H12.1659V91.5333ZM110.507 -47.6915V-57.8539H99.3548V-67H81.106V-57.8539H89.2166V-47.6915H99.3548V-37.5291H110.507V-27.3667H99.3548V-18.2205H89.2166V-27.3667H81.106V-37.5291H69.9539V-47.6915H60.8295V-37.5291H49.6774V-27.3667H60.8295V-18.2205H69.9539V-9.07439H81.106V3.12048H69.9539V13.2829H60.8295V3.12048H49.6774V-9.07439H41.5668V-18.2205H31.4286V3.12048H41.5668V13.2829H49.6774V21.4128H41.5668V29.5427H31.4286V51.8999H41.5668V41.7376H49.6774V29.5427H60.8295V21.4128H69.9539V29.5427H81.106V41.7376H69.9539V51.8999H60.8295V60.0299H49.6774V71.2085H60.8295V80.3546H69.9539V71.2085H81.106V60.0299H89.2166V51.8999H99.3548V60.0299H110.507V71.2085H99.3548V80.3546H89.2166V91.5333H81.106V101.696H99.3548V91.5333H110.507V80.3546H120.645V91.5333H130.783V101.696H150.046V91.5333H138.894V80.3546H130.783V71.2085H120.645V60.0299H130.783V51.8999H138.894V60.0299H150.046V71.2085H160.184V80.3546H170.323V71.2085H179.447V60.0299H170.323V51.8999H160.184V41.7376H150.046V29.5427H160.184V21.4128H170.323V29.5427H179.447V41.7376H189.585V51.8999H199.724V29.5427H189.585V21.4128H179.447V13.2829H189.585V3.12048H199.724V-18.2205H189.585V-9.07439H179.447V3.12048H170.323V13.2829H160.184V3.12048H150.046V-9.07439H160.184V-18.2205H170.323V-27.3667H179.447V-37.5291H170.323V-47.6915H160.184V-37.5291H150.046V-27.3667H138.894V-18.2205H130.783V-27.3667H120.645V-37.5291H130.783V-47.6915H138.894V-57.8539H150.046V-67H130.783V-57.8539H120.645V-47.6915H110.507ZM12.1659 13.2829V3.12048H-1.19209e-05V29.5427H12.1659V21.4128H19.2627V13.2829H12.1659ZM179.447 91.5333H189.585V80.3546H199.724V71.2085H209.862V60.0299H220V91.5333H209.862V101.696H179.447V91.5333ZM220 13.2829V21.4128H209.862V13.2829H220ZM220 -27.3667H209.862V-37.5291H199.724V-47.6915H189.585V-57.8539H179.447V-67H209.862V-57.8539H220V-27.3667Z" stroke="#393939" stroke-width="3"/>
<path opacity="0.5" d="M120.645 169.621V160.475H110.507V169.621M120.645 169.621H110.507M120.645 169.621V181.816M120.645 169.621H130.783V181.816M110.507 169.621V181.816M110.507 169.621H99.3548V181.816M120.645 181.816H130.783M120.645 181.816H110.507M120.645 181.816V191.979M130.783 181.816V191.979M130.783 181.816H138.894V191.979M110.507 181.816H99.3548M110.507 181.816V191.979M99.3548 181.816H89.2166V191.979M99.3548 181.816V191.979M89.2166 191.979H99.3548M89.2166 191.979H81.106V200.109H89.2166M89.2166 191.979V200.109M99.3548 191.979H110.507M99.3548 191.979V200.109M120.645 191.979H110.507M120.645 191.979V200.109M120.645 191.979H130.783M110.507 191.979V200.109M130.783 191.979H138.894M130.783 191.979V200.109M138.894 191.979H150.046V200.109H138.894M138.894 191.979V200.109M138.894 200.109H130.783M138.894 200.109V208.238H130.783M130.783 200.109H120.645M130.783 200.109V208.238M120.645 200.109H110.507M120.645 200.109V208.238M89.2166 200.109H99.3548M89.2166 200.109V208.238H99.3548M99.3548 200.109V208.238M99.3548 200.109H110.507M99.3548 208.238H110.507M99.3548 208.238V220.433H110.507M110.507 200.109V208.238M120.645 208.238H130.783M120.645 208.238H110.507M120.645 208.238V220.433M130.783 208.238V220.433H120.645M110.507 208.238V220.433M110.507 220.433H120.645M110.507 220.433V230.596H120.645V220.433M12.1659 120.842V111.696H-1.19209e-05V120.842H12.1659ZM12.1659 120.842V131.004H-1.19209e-05V159.459H12.1659V151.329H19.2627V141.167H31.4286V131.004H41.5668V120.842H49.6774V111.696H19.2627V120.842H12.1659ZM12.1659 270.229V259.05H-1.19209e-05V230.596H12.1659V238.726H19.2627V249.904H31.4286V259.05H41.5668V270.229H49.6774V280.391H19.2627V270.229H12.1659ZM12.1659 270.229H-1.19209e-05V280.391H12.1659V270.229ZM110.507 131.004V120.842H99.3548V111.696H81.106V120.842H89.2166V131.004H99.3548V141.167H110.507V151.329H99.3548V160.475H89.2166V151.329H81.106V141.167H69.9539V131.004H60.8295V141.167H49.6774V151.329H60.8295V160.475H69.9539V169.621H81.106V181.816H69.9539V191.979H60.8295V181.816H49.6774V169.621H41.5668V160.475H31.4286V181.816H41.5668V191.979H49.6774V200.109H41.5668V208.238H31.4286V230.596H41.5668V220.433H49.6774V208.238H60.8295V200.109H69.9539V208.238H81.106V220.433H69.9539V230.596H60.8295V238.726H49.6774V249.904H60.8295V259.05H69.9539V249.904H81.106V238.726H89.2166V230.596H99.3548V238.726H110.507V249.904H99.3548V259.05H89.2166V270.229H81.106V280.391H99.3548V270.229H110.507V259.05H120.645V270.229H130.783V280.391H150.046V270.229H138.894V259.05H130.783V249.904H120.645V238.726H130.783V230.596H138.894V238.726H150.046V249.904H160.184V259.05H170.323V249.904H179.447V238.726H170.323V230.596H160.184V220.433H150.046V208.238H160.184V200.109H170.323V208.238H179.447V220.433H189.585V230.596H199.724V208.238H189.585V200.109H179.447V191.979H189.585V181.816H199.724V160.475H189.585V169.621H179.447V181.816H170.323V191.979H160.184V181.816H150.046V169.621H160.184V160.475H170.323V151.329H179.447V141.167H170.323V131.004H160.184V141.167H150.046V151.329H138.894V160.475H130.783V151.329H120.645V141.167H130.783V131.004H138.894V120.842H150.046V111.696H130.783V120.842H120.645V131.004H110.507ZM12.1659 191.979V181.816H-1.19209e-05V208.238H12.1659V200.109H19.2627V191.979H12.1659ZM179.447 270.229H189.585V259.05H199.724V249.904H209.862V238.726H220V270.229H209.862V280.391H179.447V270.229ZM220 191.979V200.109H209.862V191.979H220ZM220 151.329H209.862V141.167H199.724V131.004H189.585V120.842H179.447V111.696H209.862V120.842H220V151.329Z" stroke="#393939" stroke-width="3"/>
<path opacity="0.5" d="M120.645 348.317V339.171H110.507V348.317M120.645 348.317H110.507M120.645 348.317V360.512M120.645 348.317H130.783V360.512M110.507 348.317V360.512M110.507 348.317H99.3548V360.512M120.645 360.512H130.783M120.645 360.512H110.507M120.645 360.512V370.674M130.783 360.512V370.674M130.783 360.512H138.894V370.674M110.507 360.512H99.3548M110.507 360.512V370.674M99.3548 360.512H89.2166V370.674M99.3548 360.512V370.674M89.2166 370.674H99.3548M89.2166 370.674H81.106V378.804H89.2166M89.2166 370.674V378.804M99.3548 370.674H110.507M99.3548 370.674V378.804M120.645 370.674H110.507M120.645 370.674V378.804M120.645 370.674H130.783M110.507 370.674V378.804M130.783 370.674H138.894M130.783 370.674V378.804M138.894 370.674H150.046V378.804H138.894M138.894 370.674V378.804M138.894 378.804H130.783M138.894 378.804V386.934H130.783M130.783 378.804H120.645M130.783 378.804V386.934M120.645 378.804H110.507M120.645 378.804V386.934M89.2166 378.804H99.3548M89.2166 378.804V386.934H99.3548M99.3548 378.804V386.934M99.3548 378.804H110.507M99.3548 386.934H110.507M99.3548 386.934V399.129H110.507M110.507 378.804V386.934M120.645 386.934H130.783M120.645 386.934H110.507M120.645 386.934V399.129M130.783 386.934V399.129H120.645M110.507 386.934V399.129M110.507 399.129H120.645M110.507 399.129V409.291H120.645V399.129M12.1659 299.537V290.391H-1.19209e-05V299.537H12.1659ZM12.1659 299.537V309.7H-1.19209e-05V338.154H12.1659V330.024H19.2627V319.862H31.4286V309.7H41.5668V299.537H49.6774V290.391H19.2627V299.537H12.1659ZM12.1659 448.924V437.746H-1.19209e-05V409.291H12.1659V417.421H19.2627V428.6H31.4286V437.746H41.5668V448.924H49.6774V459.087H19.2627V448.924H12.1659ZM12.1659 448.924H-1.19209e-05V459.087H12.1659V448.924ZM110.507 309.7V299.537H99.3548V290.391H81.106V299.537H89.2166V309.7H99.3548V319.862H110.507V330.024H99.3548V339.171H89.2166V330.024H81.106V319.862H69.9539V309.7H60.8295V319.862H49.6774V330.024H60.8295V339.171H69.9539V348.317H81.106V360.512H69.9539V370.674H60.8295V360.512H49.6774V348.317H41.5668V339.171H31.4286V360.512H41.5668V370.674H49.6774V378.804H41.5668V386.934H31.4286V409.291H41.5668V399.129H49.6774V386.934H60.8295V378.804H69.9539V386.934H81.106V399.129H69.9539V409.291H60.8295V417.421H49.6774V428.6H60.8295V437.746H69.9539V428.6H81.106V417.421H89.2166V409.291H99.3548V417.421H110.507V428.6H99.3548V437.746H89.2166V448.924H81.106V459.087H99.3548V448.924H110.507V437.746H120.645V448.924H130.783V459.087H150.046V448.924H138.894V437.746H130.783V428.6H120.645V417.421H130.783V409.291H138.894V417.421H150.046V428.6H160.184V437.746H170.323V428.6H179.447V417.421H170.323V409.291H160.184V399.129H150.046V386.934H160.184V378.804H170.323V386.934H179.447V399.129H189.585V409.291H199.724V386.934H189.585V378.804H179.447V370.674H189.585V360.512H199.724V339.171H189.585V348.317H179.447V360.512H170.323V370.674H160.184V360.512H150.046V348.317H160.184V339.171H170.323V330.024H179.447V319.862H170.323V309.7H160.184V319.862H150.046V330.024H138.894V339.171H130.783V330.024H120.645V319.862H130.783V309.7H138.894V299.537H150.046V290.391H130.783V299.537H120.645V309.7H110.507ZM12.1659 370.674V360.512H-1.19209e-05V386.934H12.1659V378.804H19.2627V370.674H12.1659ZM179.447 448.924H189.585V437.746H199.724V428.6H209.862V417.421H220V448.924H209.862V459.087H179.447V448.924ZM220 370.674V378.804H209.862V370.674H220ZM220 330.024H209.862V319.862H199.724V309.7H189.585V299.537H179.447V290.391H209.862V299.537H220V330.024Z" stroke="#393939" stroke-width="3"/>
<path opacity="0.5" d="M120.645 527.013V517.866H110.507V527.013M120.645 527.013H110.507M120.645 527.013V539.207M120.645 527.013H130.783V539.207M110.507 527.013V539.207M110.507 527.013H99.3548V539.207M120.645 539.207H130.783M120.645 539.207H110.507M120.645 539.207V549.37M130.783 539.207V549.37M130.783 539.207H138.894V549.37M110.507 539.207H99.3548M110.507 539.207V549.37M99.3548 539.207H89.2166V549.37M99.3548 539.207V549.37M89.2166 549.37H99.3548M89.2166 549.37H81.106V557.5H89.2166M89.2166 549.37V557.5M99.3548 549.37H110.507M99.3548 549.37V557.5M120.645 549.37H110.507M120.645 549.37V557.5M120.645 549.37H130.783M110.507 549.37V557.5M130.783 549.37H138.894M130.783 549.37V557.5M138.894 549.37H150.046V557.5H138.894M138.894 549.37V557.5M138.894 557.5H130.783M138.894 557.5V565.63H130.783M130.783 557.5H120.645M130.783 557.5V565.63M120.645 557.5H110.507M120.645 557.5V565.63M89.2166 557.5H99.3548M89.2166 557.5V565.63H99.3548M99.3548 557.5V565.63M99.3548 557.5H110.507M99.3548 565.63H110.507M99.3548 565.63V577.824H110.507M110.507 557.5V565.63M120.645 565.63H130.783M120.645 565.63H110.507M120.645 565.63V577.824M130.783 565.63V577.824H120.645M110.507 565.63V577.824M110.507 577.824H120.645M110.507 577.824V587.987H120.645V577.824M12.1659 478.233V469.087H-1.19209e-05V478.233H12.1659ZM12.1659 478.233V488.395H-1.19209e-05V516.85H12.1659V508.72H19.2627V498.558H31.4286V488.395H41.5668V478.233H49.6774V469.087H19.2627V478.233H12.1659ZM12.1659 627.62V616.442H-1.19209e-05V587.987H12.1659V596.117H19.2627V607.295H31.4286V616.442H41.5668V627.62H49.6774V637.783H19.2627V627.62H12.1659ZM12.1659 627.62H-1.19209e-05V637.783H12.1659V627.62ZM110.507 488.395V478.233H99.3548V469.087H81.106V478.233H89.2166V488.395H99.3548V498.558H110.507V508.72H99.3548V517.866H89.2166V508.72H81.106V498.558H69.9539V488.395H60.8295V498.558H49.6774V508.72H60.8295V517.866H69.9539V527.013H81.106V539.207H69.9539V549.37H60.8295V539.207H49.6774V527.013H41.5668V517.866H31.4286V539.207H41.5668V549.37H49.6774V557.5H41.5668V565.63H31.4286V587.987H41.5668V577.824H49.6774V565.63H60.8295V557.5H69.9539V565.63H81.106V577.824H69.9539V587.987H60.8295V596.117H49.6774V607.295H60.8295V616.442H69.9539V607.295H81.106V596.117H89.2166V587.987H99.3548V596.117H110.507V607.295H99.3548V616.442H89.2166V627.62H81.106V637.783H99.3548V627.62H110.507V616.442H120.645V627.62H130.783V637.783H150.046V627.62H138.894V616.442H130.783V607.295H120.645V596.117H130.783V587.987H138.894V596.117H150.046V607.295H160.184V616.442H170.323V607.295H179.447V596.117H170.323V587.987H160.184V577.824H150.046V565.63H160.184V557.5H170.323V565.63H179.447V577.824H189.585V587.987H199.724V565.63H189.585V557.5H179.447V549.37H189.585V539.207H199.724V517.866H189.585V527.013H179.447V539.207H170.323V549.37H160.184V539.207H150.046V527.013H160.184V517.866H170.323V508.72H179.447V498.558H170.323V488.395H160.184V498.558H150.046V508.72H138.894V517.866H130.783V508.72H120.645V498.558H130.783V488.395H138.894V478.233H150.046V469.087H130.783V478.233H120.645V488.395H110.507ZM12.1659 549.37V539.207H-1.19209e-05V565.63H12.1659V557.5H19.2627V549.37H12.1659ZM179.447 627.62H189.585V616.442H199.724V607.295H209.862V596.117H220V627.62H209.862V637.783H179.447V627.62ZM220 549.37V557.5H209.862V549.37H220ZM220 508.72H209.862V498.558H199.724V488.395H189.585V478.233H179.447V469.087H209.862V478.233H220V508.72Z" stroke="#393939" stroke-width="3"/>
<path opacity="0.5" d="M120.645 705.708V696.562H110.507V705.708M120.645 705.708H110.507M120.645 705.708V717.903M120.645 705.708H130.783V717.903M110.507 705.708V717.903M110.507 705.708H99.3548V717.903M120.645 717.903H130.783M120.645 717.903H110.507M120.645 717.903V728.066M130.783 717.903V728.066M130.783 717.903H138.894V728.066M110.507 717.903H99.3548M110.507 717.903V728.066M99.3548 717.903H89.2166V728.066M99.3548 717.903V728.066M89.2166 728.066H99.3548M89.2166 728.066H81.106V736.195H89.2166M89.2166 728.066V736.195M99.3548 728.066H110.507M99.3548 728.066V736.195M120.645 728.066H110.507M120.645 728.066V736.195M120.645 728.066H130.783M110.507 728.066V736.195M130.783 728.066H138.894M130.783 728.066V736.195M138.894 728.066H150.046V736.195H138.894M138.894 728.066V736.195M138.894 736.195H130.783M138.894 736.195V744.325H130.783M130.783 736.195H120.645M130.783 736.195V744.325M120.645 736.195H110.507M120.645 736.195V744.325M89.2166 736.195H99.3548M89.2166 736.195V744.325H99.3548M99.3548 736.195V744.325M99.3548 736.195H110.507M99.3548 744.325H110.507M99.3548 744.325V756.52H110.507M110.507 736.195V744.325M120.645 744.325H130.783M120.645 744.325H110.507M120.645 744.325V756.52M130.783 744.325V756.52H120.645M110.507 744.325V756.52M110.507 756.52H120.645M110.507 756.52V766.683H120.645V756.52M12.1659 656.929V647.783H-1.19209e-05V656.929H12.1659ZM12.1659 656.929V667.091H-1.19209e-05V695.546H12.1659V687.416H19.2627V677.254H31.4286V667.091H41.5668V656.929H49.6774V647.783H19.2627V656.929H12.1659ZM12.1659 806.316V795.137H-1.19209e-05V766.683H12.1659V774.813H19.2627V785.991H31.4286V795.137H41.5668V806.316H49.6774V816.478H19.2627V806.316H12.1659ZM12.1659 806.316H-1.19209e-05V816.478H12.1659V806.316ZM110.507 667.091V656.929H99.3548V647.783H81.106V656.929H89.2166V667.091H99.3548V677.254H110.507V687.416H99.3548V696.562H89.2166V687.416H81.106V677.254H69.9539V667.091H60.8295V677.254H49.6774V687.416H60.8295V696.562H69.9539V705.708H81.106V717.903H69.9539V728.066H60.8295V717.903H49.6774V705.708H41.5668V696.562H31.4286V717.903H41.5668V728.066H49.6774V736.195H41.5668V744.325H31.4286V766.683H41.5668V756.52H49.6774V744.325H60.8295V736.195H69.9539V744.325H81.106V756.52H69.9539V766.683H60.8295V774.813H49.6774V785.991H60.8295V795.137H69.9539V785.991H81.106V774.813H89.2166V766.683H99.3548V774.813H110.507V785.991H99.3548V795.137H89.2166V806.316H81.106V816.478H99.3548V806.316H110.507V795.137H120.645V806.316H130.783V816.478H150.046V806.316H138.894V795.137H130.783V785.991H120.645V774.813H130.783V766.683H138.894V774.813H150.046V785.991H160.184V795.137H170.323V785.991H179.447V774.813H170.323V766.683H160.184V756.52H150.046V744.325H160.184V736.195H170.323V744.325H179.447V756.52H189.585V766.683H199.724V744.325H189.585V736.195H179.447V728.066H189.585V717.903H199.724V696.562H189.585V705.708H179.447V717.903H170.323V728.066H160.184V717.903H150.046V705.708H160.184V696.562H170.323V687.416H179.447V677.254H170.323V667.091H160.184V677.254H150.046V687.416H138.894V696.562H130.783V687.416H120.645V677.254H130.783V667.091H138.894V656.929H150.046V647.783H130.783V656.929H120.645V667.091H110.507ZM12.1659 728.066V717.903H-1.19209e-05V744.325H12.1659V736.195H19.2627V728.066H12.1659ZM179.447 806.316H189.585V795.137H199.724V785.991H209.862V774.813H220V806.316H209.862V816.478H179.447V806.316ZM220 728.066V736.195H209.862V728.066H220ZM220 687.416H209.862V677.254H199.724V667.091H189.585V656.929H179.447V647.783H209.862V656.929H220V687.416Z" stroke="#393939" stroke-width="3"/>
<path opacity="0.5" d="M120.645 884.404V875.258H110.507V884.404M120.645 884.404H110.507M120.645 884.404V896.599M120.645 884.404H130.783V896.599M110.507 884.404V896.599M110.507 884.404H99.3548V896.599M120.645 896.599H130.783M120.645 896.599H110.507M120.645 896.599V906.761M130.783 896.599V906.761M130.783 896.599H138.894V906.761M110.507 896.599H99.3548M110.507 896.599V906.761M99.3548 896.599H89.2166V906.761M99.3548 896.599V906.761M89.2166 906.761H99.3548M89.2166 906.761H81.106V914.891H89.2166M89.2166 906.761V914.891M99.3548 906.761H110.507M99.3548 906.761V914.891M120.645 906.761H110.507M120.645 906.761V914.891M120.645 906.761H130.783M110.507 906.761V914.891M130.783 906.761H138.894M130.783 906.761V914.891M138.894 906.761H150.046V914.891H138.894M138.894 906.761V914.891M138.894 914.891H130.783M138.894 914.891V923.021H130.783M130.783 914.891H120.645M130.783 914.891V923.021M120.645 914.891H110.507M120.645 914.891V923.021M89.2166 914.891H99.3548M89.2166 914.891V923.021H99.3548M99.3548 914.891V923.021M99.3548 914.891H110.507M99.3548 923.021H110.507M99.3548 923.021V935.216H110.507M110.507 914.891V923.021M120.645 923.021H130.783M120.645 923.021H110.507M120.645 923.021V935.216M130.783 923.021V935.216H120.645M110.507 923.021V935.216M110.507 935.216H120.645M110.507 935.216V945.378H120.645V935.216M12.1659 835.625V826.479H-1.19209e-05V835.625H12.1659ZM12.1659 835.625V845.787H-1.19209e-05V874.242H12.1659V866.112H19.2627V855.949H31.4286V845.787H41.5668V835.625H49.6774V826.479H19.2627V835.625H12.1659ZM12.1659 985.012V973.833H-1.19209e-05V945.378H12.1659V953.508H19.2627V964.687H31.4286V973.833H41.5668V985.012H49.6774V995.174H19.2627V985.012H12.1659ZM12.1659 985.012H-1.19209e-05V995.174H12.1659V985.012ZM110.507 845.787V835.625H99.3548V826.479H81.106V835.625H89.2166V845.787H99.3548V855.949H110.507V866.112H99.3548V875.258H89.2166V866.112H81.106V855.949H69.9539V845.787H60.8295V855.949H49.6774V866.112H60.8295V875.258H69.9539V884.404H81.106V896.599H69.9539V906.761H60.8295V896.599H49.6774V884.404H41.5668V875.258H31.4286V896.599H41.5668V906.761H49.6774V914.891H41.5668V923.021H31.4286V945.378H41.5668V935.216H49.6774V923.021H60.8295V914.891H69.9539V923.021H81.106V935.216H69.9539V945.378H60.8295V953.508H49.6774V964.687H60.8295V973.833H69.9539V964.687H81.106V953.508H89.2166V945.378H99.3548V953.508H110.507V964.687H99.3548V973.833H89.2166V985.012H81.106V995.174H99.3548V985.012H110.507V973.833H120.645V985.012H130.783V995.174H150.046V985.012H138.894V973.833H130.783V964.687H120.645V953.508H130.783V945.378H138.894V953.508H150.046V964.687H160.184V973.833H170.323V964.687H179.447V953.508H170.323V945.378H160.184V935.216H150.046V923.021H160.184V914.891H170.323V923.021H179.447V935.216H189.585V945.378H199.724V923.021H189.585V914.891H179.447V906.761H189.585V896.599H199.724V875.258H189.585V884.404H179.447V896.599H170.323V906.761H160.184V896.599H150.046V884.404H160.184V875.258H170.323V866.112H179.447V855.949H170.323V845.787H160.184V855.949H150.046V866.112H138.894V875.258H130.783V866.112H120.645V855.949H130.783V845.787H138.894V835.625H150.046V826.479H130.783V835.625H120.645V845.787H110.507ZM12.1659 906.761V896.599H-1.19209e-05V923.021H12.1659V914.891H19.2627V906.761H12.1659ZM179.447 985.012H189.585V973.833H199.724V964.687H209.862V953.508H220V985.012H209.862V995.174H179.447V985.012ZM220 906.761V914.891H209.862V906.761H220ZM220 866.112H209.862V855.949H199.724V845.787H189.585V835.625H179.447V826.479H209.862V835.625H220V866.112Z" stroke="#393939" stroke-width="3"/>
<path opacity="0.5" d="M120.645 1063.1V1053.95H110.507V1063.1M120.645 1063.1H110.507M120.645 1063.1V1075.29M120.645 1063.1H130.783V1075.29M110.507 1063.1V1075.29M110.507 1063.1H99.3548V1075.29M120.645 1075.29H130.783M120.645 1075.29H110.507M120.645 1075.29V1085.46M130.783 1075.29V1085.46M130.783 1075.29H138.894V1085.46M110.507 1075.29H99.3548M110.507 1075.29V1085.46M99.3548 1075.29H89.2166V1085.46M99.3548 1075.29V1085.46M89.2166 1085.46H99.3548M89.2166 1085.46H81.106V1093.59H89.2166M89.2166 1085.46V1093.59M99.3548 1085.46H110.507M99.3548 1085.46V1093.59M120.645 1085.46H110.507M120.645 1085.46V1093.59M120.645 1085.46H130.783M110.507 1085.46V1093.59M130.783 1085.46H138.894M130.783 1085.46V1093.59M138.894 1085.46H150.046V1093.59H138.894M138.894 1085.46V1093.59M138.894 1093.59H130.783M138.894 1093.59V1101.72H130.783M130.783 1093.59H120.645M130.783 1093.59V1101.72M120.645 1093.59H110.507M120.645 1093.59V1101.72M89.2166 1093.59H99.3548M89.2166 1093.59V1101.72H99.3548M99.3548 1093.59V1101.72M99.3548 1093.59H110.507M99.3548 1101.72H110.507M99.3548 1101.72V1113.91H110.507M110.507 1093.59V1101.72M120.645 1101.72H130.783M120.645 1101.72H110.507M120.645 1101.72V1113.91M130.783 1101.72V1113.91H120.645M110.507 1101.72V1113.91M110.507 1113.91H120.645M110.507 1113.91V1124.07H120.645V1113.91M12.1659 1014.32V1005.17H-1.19209e-05V1014.32H12.1659ZM12.1659 1014.32V1024.48H-1.19209e-05V1052.94H12.1659V1044.81H19.2627V1034.64H31.4286V1024.48H41.5668V1014.32H49.6774V1005.17H19.2627V1014.32H12.1659ZM12.1659 1163.71V1152.53H-1.19209e-05V1124.07H12.1659V1132.2H19.2627V1143.38H31.4286V1152.53H41.5668V1163.71H49.6774V1173.87H19.2627V1163.71H12.1659ZM12.1659 1163.71H-1.19209e-05V1173.87H12.1659V1163.71ZM110.507 1024.48V1014.32H99.3548V1005.17H81.106V1014.32H89.2166V1024.48H99.3548V1034.64H110.507V1044.81H99.3548V1053.95H89.2166V1044.81H81.106V1034.64H69.9539V1024.48H60.8295V1034.64H49.6774V1044.81H60.8295V1053.95H69.9539V1063.1H81.106V1075.29H69.9539V1085.46H60.8295V1075.29H49.6774V1063.1H41.5668V1053.95H31.4286V1075.29H41.5668V1085.46H49.6774V1093.59H41.5668V1101.72H31.4286V1124.07H41.5668V1113.91H49.6774V1101.72H60.8295V1093.59H69.9539V1101.72H81.106V1113.91H69.9539V1124.07H60.8295V1132.2H49.6774V1143.38H60.8295V1152.53H69.9539V1143.38H81.106V1132.2H89.2166V1124.07H99.3548V1132.2H110.507V1143.38H99.3548V1152.53H89.2166V1163.71H81.106V1173.87H99.3548V1163.71H110.507V1152.53H120.645V1163.71H130.783V1173.87H150.046V1163.71H138.894V1152.53H130.783V1143.38H120.645V1132.2H130.783V1124.07H138.894V1132.2H150.046V1143.38H160.184V1152.53H170.323V1143.38H179.447V1132.2H170.323V1124.07H160.184V1113.91H150.046V1101.72H160.184V1093.59H170.323V1101.72H179.447V1113.91H189.585V1124.07H199.724V1101.72H189.585V1093.59H179.447V1085.46H189.585V1075.29H199.724V1053.95H189.585V1063.1H179.447V1075.29H170.323V1085.46H160.184V1075.29H150.046V1063.1H160.184V1053.95H170.323V1044.81H179.447V1034.64H170.323V1024.48H160.184V1034.64H150.046V1044.81H138.894V1053.95H130.783V1044.81H120.645V1034.64H130.783V1024.48H138.894V1014.32H150.046V1005.17H130.783V1014.32H120.645V1024.48H110.507ZM12.1659 1085.46V1075.29H-1.19209e-05V1101.72H12.1659V1093.59H19.2627V1085.46H12.1659ZM179.447 1163.71H189.585V1152.53H199.724V1143.38H209.862V1132.2H220V1163.71H209.862V1173.87H179.447V1163.71ZM220 1085.46V1093.59H209.862V1085.46H220ZM220 1044.81H209.862V1034.64H199.724V1024.48H189.585V1014.32H179.447V1005.17H209.862V1014.32H220V1044.81Z" stroke="#393939" stroke-width="3"/>
<path opacity="0.5" d="M120.645 1241.8V1232.65H110.507V1241.8M120.645 1241.8H110.507M120.645 1241.8V1253.99M120.645 1241.8H130.783V1253.99M110.507 1241.8V1253.99M110.507 1241.8H99.3548V1253.99M120.645 1253.99H130.783M120.645 1253.99H110.507M120.645 1253.99V1264.15M130.783 1253.99V1264.15M130.783 1253.99H138.894V1264.15M110.507 1253.99H99.3548M110.507 1253.99V1264.15M99.3548 1253.99H89.2166V1264.15M99.3548 1253.99V1264.15M89.2166 1264.15H99.3548M89.2166 1264.15H81.106V1272.28H89.2166M89.2166 1264.15V1272.28M99.3548 1264.15H110.507M99.3548 1264.15V1272.28M120.645 1264.15H110.507M120.645 1264.15V1272.28M120.645 1264.15H130.783M110.507 1264.15V1272.28M130.783 1264.15H138.894M130.783 1264.15V1272.28M138.894 1264.15H150.046V1272.28H138.894M138.894 1264.15V1272.28M138.894 1272.28H130.783M138.894 1272.28V1280.41H130.783M130.783 1272.28H120.645M130.783 1272.28V1280.41M120.645 1272.28H110.507M120.645 1272.28V1280.41M89.2166 1272.28H99.3548M89.2166 1272.28V1280.41H99.3548M99.3548 1272.28V1280.41M99.3548 1272.28H110.507M99.3548 1280.41H110.507M99.3548 1280.41V1292.61H110.507M110.507 1272.28V1280.41M120.645 1280.41H130.783M120.645 1280.41H110.507M120.645 1280.41V1292.61M130.783 1280.41V1292.61H120.645M110.507 1280.41V1292.61M110.507 1292.61H120.645M110.507 1292.61V1302.77H120.645V1292.61M12.1659 1193.02V1183.87H-1.19209e-05V1193.02H12.1659ZM12.1659 1193.02V1203.18H-1.19209e-05V1231.63H12.1659V1223.5H19.2627V1213.34H31.4286V1203.18H41.5668V1193.02H49.6774V1183.87H19.2627V1193.02H12.1659ZM12.1659 1342.4V1331.22H-1.19209e-05V1302.77H12.1659V1310.9H19.2627V1322.08H31.4286V1331.22H41.5668V1342.4H49.6774V1352.57H19.2627V1342.4H12.1659ZM12.1659 1342.4H-1.19209e-05V1352.57H12.1659V1342.4ZM110.507 1203.18V1193.02H99.3548V1183.87H81.106V1193.02H89.2166V1203.18H99.3548V1213.34H110.507V1223.5H99.3548V1232.65H89.2166V1223.5H81.106V1213.34H69.9539V1203.18H60.8295V1213.34H49.6774V1223.5H60.8295V1232.65H69.9539V1241.8H81.106V1253.99H69.9539V1264.15H60.8295V1253.99H49.6774V1241.8H41.5668V1232.65H31.4286V1253.99H41.5668V1264.15H49.6774V1272.28H41.5668V1280.41H31.4286V1302.77H41.5668V1292.61H49.6774V1280.41H60.8295V1272.28H69.9539V1280.41H81.106V1292.61H69.9539V1302.77H60.8295V1310.9H49.6774V1322.08H60.8295V1331.22H69.9539V1322.08H81.106V1310.9H89.2166V1302.77H99.3548V1310.9H110.507V1322.08H99.3548V1331.22H89.2166V1342.4H81.106V1352.57H99.3548V1342.4H110.507V1331.22H120.645V1342.4H130.783V1352.57H150.046V1342.4H138.894V1331.22H130.783V1322.08H120.645V1310.9H130.783V1302.77H138.894V1310.9H150.046V1322.08H160.184V1331.22H170.323V1322.08H179.447V1310.9H170.323V1302.77H160.184V1292.61H150.046V1280.41H160.184V1272.28H170.323V1280.41H179.447V1292.61H189.585V1302.77H199.724V1280.41H189.585V1272.28H179.447V1264.15H189.585V1253.99H199.724V1232.65H189.585V1241.8H179.447V1253.99H170.323V1264.15H160.184V1253.99H150.046V1241.8H160.184V1232.65H170.323V1223.5H179.447V1213.34H170.323V1203.18H160.184V1213.34H150.046V1223.5H138.894V1232.65H130.783V1223.5H120.645V1213.34H130.783V1203.18H138.894V1193.02H150.046V1183.87H130.783V1193.02H120.645V1203.18H110.507ZM12.1659 1264.15V1253.99H-1.19209e-05V1280.41H12.1659V1272.28H19.2627V1264.15H12.1659ZM179.447 1342.4H189.585V1331.22H199.724V1322.08H209.862V1310.9H220V1342.4H209.862V1352.57H179.447V1342.4ZM220 1264.15V1272.28H209.862V1264.15H220ZM220 1223.5H209.862V1213.34H199.724V1203.18H189.585V1193.02H179.447V1183.87H209.862V1193.02H220V1223.5Z" stroke="#393939" stroke-width="3"/>
<path opacity="0.5" d="M120.645 1420.49V1411.34H110.507V1420.49M120.645 1420.49H110.507M120.645 1420.49V1432.69M120.645 1420.49H130.783V1432.69M110.507 1420.49V1432.69M110.507 1420.49H99.3548V1432.69M120.645 1432.69H130.783M120.645 1432.69H110.507M120.645 1432.69V1442.85M130.783 1432.69V1442.85M130.783 1432.69H138.894V1442.85M110.507 1432.69H99.3548M110.507 1432.69V1442.85M99.3548 1432.69H89.2166V1442.85M99.3548 1432.69V1442.85M89.2166 1442.85H99.3548M89.2166 1442.85H81.106V1450.98H89.2166M89.2166 1442.85V1450.98M99.3548 1442.85H110.507M99.3548 1442.85V1450.98M120.645 1442.85H110.507M120.645 1442.85V1450.98M120.645 1442.85H130.783M110.507 1442.85V1450.98M130.783 1442.85H138.894M130.783 1442.85V1450.98M138.894 1442.85H150.046V1450.98H138.894M138.894 1442.85V1450.98M138.894 1450.98H130.783M138.894 1450.98V1459.11H130.783M130.783 1450.98H120.645M130.783 1450.98V1459.11M120.645 1450.98H110.507M120.645 1450.98V1459.11M89.2166 1450.98H99.3548M89.2166 1450.98V1459.11H99.3548M99.3548 1450.98V1459.11M99.3548 1450.98H110.507M99.3548 1459.11H110.507M99.3548 1459.11V1471.3H110.507M110.507 1450.98V1459.11M120.645 1459.11H130.783M120.645 1459.11H110.507M120.645 1459.11V1471.3M130.783 1459.11V1471.3H120.645M110.507 1459.11V1471.3M110.507 1471.3H120.645M110.507 1471.3V1481.47H120.645V1471.3M12.1659 1371.71V1362.57H-1.19209e-05V1371.71H12.1659ZM12.1659 1371.71V1381.87H-1.19209e-05V1410.33H12.1659V1402.2H19.2627V1392.04H31.4286V1381.87H41.5668V1371.71H49.6774V1362.57H19.2627V1371.71H12.1659ZM12.1659 1521.1V1509.92H-1.19209e-05V1481.47H12.1659V1489.6H19.2627V1500.77H31.4286V1509.92H41.5668V1521.1H49.6774V1531.26H19.2627V1521.1H12.1659ZM12.1659 1521.1H-1.19209e-05V1531.26H12.1659V1521.1ZM110.507 1381.87V1371.71H99.3548V1362.57H81.106V1371.71H89.2166V1381.87H99.3548V1392.04H110.507V1402.2H99.3548V1411.34H89.2166V1402.2H81.106V1392.04H69.9539V1381.87H60.8295V1392.04H49.6774V1402.2H60.8295V1411.34H69.9539V1420.49H81.106V1432.69H69.9539V1442.85H60.8295V1432.69H49.6774V1420.49H41.5668V1411.34H31.4286V1432.69H41.5668V1442.85H49.6774V1450.98H41.5668V1459.11H31.4286V1481.47H41.5668V1471.3H49.6774V1459.11H60.8295V1450.98H69.9539V1459.11H81.106V1471.3H69.9539V1481.47H60.8295V1489.6H49.6774V1500.77H60.8295V1509.92H69.9539V1500.77H81.106V1489.6H89.2166V1481.47H99.3548V1489.6H110.507V1500.77H99.3548V1509.92H89.2166V1521.1H81.106V1531.26H99.3548V1521.1H110.507V1509.92H120.645V1521.1H130.783V1531.26H150.046V1521.1H138.894V1509.92H130.783V1500.77H120.645V1489.6H130.783V1481.47H138.894V1489.6H150.046V1500.77H160.184V1509.92H170.323V1500.77H179.447V1489.6H170.323V1481.47H160.184V1471.3H150.046V1459.11H160.184V1450.98H170.323V1459.11H179.447V1471.3H189.585V1481.47H199.724V1459.11H189.585V1450.98H179.447V1442.85H189.585V1432.69H199.724V1411.34H189.585V1420.49H179.447V1432.69H170.323V1442.85H160.184V1432.69H150.046V1420.49H160.184V1411.34H170.323V1402.2H179.447V1392.04H170.323V1381.87H160.184V1392.04H150.046V1402.2H138.894V1411.34H130.783V1402.2H120.645V1392.04H130.783V1381.87H138.894V1371.71H150.046V1362.57H130.783V1371.71H120.645V1381.87H110.507ZM12.1659 1442.85V1432.69H-1.19209e-05V1459.11H12.1659V1450.98H19.2627V1442.85H12.1659ZM179.447 1521.1H189.585V1509.92H199.724V1500.77H209.862V1489.6H220V1521.1H209.862V1531.26H179.447V1521.1ZM220 1442.85V1450.98H209.862V1442.85H220ZM220 1402.2H209.862V1392.04H199.724V1381.87H189.585V1371.71H179.447V1362.57H209.862V1371.71H220V1402.2Z" stroke="#393939" stroke-width="3"/>
<path opacity="0.5" d="M120.645 1599.19V1590.04H110.507V1599.19M120.645 1599.19H110.507M120.645 1599.19V1611.38M120.645 1599.19H130.783V1611.38M110.507 1599.19V1611.38M110.507 1599.19H99.3548V1611.38M120.645 1611.38H130.783M120.645 1611.38H110.507M120.645 1611.38V1621.54M130.783 1611.38V1621.54M130.783 1611.38H138.894V1621.54M110.507 1611.38H99.3548M110.507 1611.38V1621.54M99.3548 1611.38H89.2166V1621.54M99.3548 1611.38V1621.54M89.2166 1621.54H99.3548M89.2166 1621.54H81.106V1629.67H89.2166M89.2166 1621.54V1629.67M99.3548 1621.54H110.507M99.3548 1621.54V1629.67M120.645 1621.54H110.507M120.645 1621.54V1629.67M120.645 1621.54H130.783M110.507 1621.54V1629.67M130.783 1621.54H138.894M130.783 1621.54V1629.67M138.894 1621.54H150.046V1629.67H138.894M138.894 1621.54V1629.67M138.894 1629.67H130.783M138.894 1629.67V1637.8H130.783M130.783 1629.67H120.645M130.783 1629.67V1637.8M120.645 1629.67H110.507M120.645 1629.67V1637.8M89.2166 1629.67H99.3548M89.2166 1629.67V1637.8H99.3548M99.3548 1629.67V1637.8M99.3548 1629.67H110.507M99.3548 1637.8H110.507M99.3548 1637.8V1650H110.507M110.507 1629.67V1637.8M120.645 1637.8H130.783M120.645 1637.8H110.507M120.645 1637.8V1650M130.783 1637.8V1650H120.645M110.507 1637.8V1650M110.507 1650H120.645M110.507 1650V1660.16H120.645V1650M12.1659 1550.41V1541.26H-1.19209e-05V1550.41H12.1659ZM12.1659 1550.41V1560.57H-1.19209e-05V1589.02H12.1659V1580.89H19.2627V1570.73H31.4286V1560.57H41.5668V1550.41H49.6774V1541.26H19.2627V1550.41H12.1659ZM12.1659 1699.79V1688.62H-1.19209e-05V1660.16H12.1659V1668.29H19.2627V1679.47H31.4286V1688.62H41.5668V1699.79H49.6774V1709.96H19.2627V1699.79H12.1659ZM12.1659 1699.79H-1.19209e-05V1709.96H12.1659V1699.79ZM110.507 1560.57V1550.41H99.3548V1541.26H81.106V1550.41H89.2166V1560.57H99.3548V1570.73H110.507V1580.89H99.3548V1590.04H89.2166V1580.89H81.106V1570.73H69.9539V1560.57H60.8295V1570.73H49.6774V1580.89H60.8295V1590.04H69.9539V1599.19H81.106V1611.38H69.9539V1621.54H60.8295V1611.38H49.6774V1599.19H41.5668V1590.04H31.4286V1611.38H41.5668V1621.54H49.6774V1629.67H41.5668V1637.8H31.4286V1660.16H41.5668V1650H49.6774V1637.8H60.8295V1629.67H69.9539V1637.8H81.106V1650H69.9539V1660.16H60.8295V1668.29H49.6774V1679.47H60.8295V1688.62H69.9539V1679.47H81.106V1668.29H89.2166V1660.16H99.3548V1668.29H110.507V1679.47H99.3548V1688.62H89.2166V1699.79H81.106V1709.96H99.3548V1699.79H110.507V1688.62H120.645V1699.79H130.783V1709.96H150.046V1699.79H138.894V1688.62H130.783V1679.47H120.645V1668.29H130.783V1660.16H138.894V1668.29H150.046V1679.47H160.184V1688.62H170.323V1679.47H179.447V1668.29H170.323V1660.16H160.184V1650H150.046V1637.8H160.184V1629.67H170.323V1637.8H179.447V1650H189.585V1660.16H199.724V1637.8H189.585V1629.67H179.447V1621.54H189.585V1611.38H199.724V1590.04H189.585V1599.19H179.447V1611.38H170.323V1621.54H160.184V1611.38H150.046V1599.19H160.184V1590.04H170.323V1580.89H179.447V1570.73H170.323V1560.57H160.184V1570.73H150.046V1580.89H138.894V1590.04H130.783V1580.89H120.645V1570.73H130.783V1560.57H138.894V1550.41H150.046V1541.26H130.783V1550.41H120.645V1560.57H110.507ZM12.1659 1621.54V1611.38H-1.19209e-05V1637.8H12.1659V1629.67H19.2627V1621.54H12.1659ZM179.447 1699.79H189.585V1688.62H199.724V1679.47H209.862V1668.29H220V1699.79H209.862V1709.96H179.447V1699.79ZM220 1621.54V1629.67H209.862V1621.54H220ZM220 1580.89H209.862V1570.73H199.724V1560.57H189.585V1550.41H179.447V1541.26H209.862V1550.41H220V1580.89Z" stroke="#393939" stroke-width="3"/>
<path opacity="0.5" d="M120.645 1777.88V1768.74H110.507V1777.88M120.645 1777.88H110.507M120.645 1777.88V1790.08M120.645 1777.88H130.783V1790.08M110.507 1777.88V1790.08M110.507 1777.88H99.3548V1790.08M120.645 1790.08H130.783M120.645 1790.08H110.507M120.645 1790.08V1800.24M130.783 1790.08V1800.24M130.783 1790.08H138.894V1800.24M110.507 1790.08H99.3548M110.507 1790.08V1800.24M99.3548 1790.08H89.2166V1800.24M99.3548 1790.08V1800.24M89.2166 1800.24H99.3548M89.2166 1800.24H81.106V1808.37H89.2166M89.2166 1800.24V1808.37M99.3548 1800.24H110.507M99.3548 1800.24V1808.37M120.645 1800.24H110.507M120.645 1800.24V1808.37M120.645 1800.24H130.783M110.507 1800.24V1808.37M130.783 1800.24H138.894M130.783 1800.24V1808.37M138.894 1800.24H150.046V1808.37H138.894M138.894 1800.24V1808.37M138.894 1808.37H130.783M138.894 1808.37V1816.5H130.783M130.783 1808.37H120.645M130.783 1808.37V1816.5M120.645 1808.37H110.507M120.645 1808.37V1816.5M89.2166 1808.37H99.3548M89.2166 1808.37V1816.5H99.3548M99.3548 1808.37V1816.5M99.3548 1808.37H110.507M99.3548 1816.5H110.507M99.3548 1816.5V1828.69H110.507M110.507 1808.37V1816.5M120.645 1816.5H130.783M120.645 1816.5H110.507M120.645 1816.5V1828.69M130.783 1816.5V1828.69H120.645M110.507 1816.5V1828.69M110.507 1828.69H120.645M110.507 1828.69V1838.86H120.645V1828.69M12.1659 1729.1V1719.96H-1.19209e-05V1729.1H12.1659ZM12.1659 1729.1V1739.27H-1.19209e-05V1767.72H12.1659V1759.59H19.2627V1749.43H31.4286V1739.27H41.5668V1729.1H49.6774V1719.96H19.2627V1729.1H12.1659ZM12.1659 1878.49V1867.31H-1.19209e-05V1838.86H12.1659V1846.99H19.2627V1858.17H31.4286V1867.31H41.5668V1878.49H49.6774V1888.65H19.2627V1878.49H12.1659ZM12.1659 1878.49H-1.19209e-05V1888.65H12.1659V1878.49ZM110.507 1739.27V1729.1H99.3548V1719.96H81.106V1729.1H89.2166V1739.27H99.3548V1749.43H110.507V1759.59H99.3548V1768.74H89.2166V1759.59H81.106V1749.43H69.9539V1739.27H60.8295V1749.43H49.6774V1759.59H60.8295V1768.74H69.9539V1777.88H81.106V1790.08H69.9539V1800.24H60.8295V1790.08H49.6774V1777.88H41.5668V1768.74H31.4286V1790.08H41.5668V1800.24H49.6774V1808.37H41.5668V1816.5H31.4286V1838.86H41.5668V1828.69H49.6774V1816.5H60.8295V1808.37H69.9539V1816.5H81.106V1828.69H69.9539V1838.86H60.8295V1846.99H49.6774V1858.17H60.8295V1867.31H69.9539V1858.17H81.106V1846.99H89.2166V1838.86H99.3548V1846.99H110.507V1858.17H99.3548V1867.31H89.2166V1878.49H81.106V1888.65H99.3548V1878.49H110.507V1867.31H120.645V1878.49H130.783V1888.65H150.046V1878.49H138.894V1867.31H130.783V1858.17H120.645V1846.99H130.783V1838.86H138.894V1846.99H150.046V1858.17H160.184V1867.31H170.323V1858.17H179.447V1846.99H170.323V1838.86H160.184V1828.69H150.046V1816.5H160.184V1808.37H170.323V1816.5H179.447V1828.69H189.585V1838.86H199.724V1816.5H189.585V1808.37H179.447V1800.24H189.585V1790.08H199.724V1768.74H189.585V1777.88H179.447V1790.08H170.323V1800.24H160.184V1790.08H150.046V1777.88H160.184V1768.74H170.323V1759.59H179.447V1749.43H170.323V1739.27H160.184V1749.43H150.046V1759.59H138.894V1768.74H130.783V1759.59H120.645V1749.43H130.783V1739.27H138.894V1729.1H150.046V1719.96H130.783V1729.1H120.645V1739.27H110.507ZM12.1659 1800.24V1790.08H-1.19209e-05V1816.5H12.1659V1808.37H19.2627V1800.24H12.1659ZM179.447 1878.49H189.585V1867.31H199.724V1858.17H209.862V1846.99H220V1878.49H209.862V1888.65H179.447V1878.49ZM220 1800.24V1808.37H209.862V1800.24H220ZM220 1759.59H209.862V1749.43H199.724V1739.27H189.585V1729.1H179.447V1719.96H209.862V1729.1H220V1759.59Z" stroke="#393939" stroke-width="3"/>
<path opacity="0.5" d="M120.645 1956.58V1947.43H110.507V1956.58M120.645 1956.58H110.507M120.645 1956.58V1968.77M120.645 1956.58H130.783V1968.77M110.507 1956.58V1968.77M110.507 1956.58H99.3548V1968.77M120.645 1968.77H130.783M120.645 1968.77H110.507M120.645 1968.77V1978.94M130.783 1968.77V1978.94M130.783 1968.77H138.894V1978.94M110.507 1968.77H99.3548M110.507 1968.77V1978.94M99.3548 1968.77H89.2166V1978.94M99.3548 1968.77V1978.94M89.2166 1978.94H99.3548M89.2166 1978.94H81.106V1987.07H89.2166M89.2166 1978.94V1987.07M99.3548 1978.94H110.507M99.3548 1978.94V1987.07M120.645 1978.94H110.507M120.645 1978.94V1987.07M120.645 1978.94H130.783M110.507 1978.94V1987.07M130.783 1978.94H138.894M130.783 1978.94V1987.07M138.894 1978.94H150.046V1987.07H138.894M138.894 1978.94V1987.07M138.894 1987.07H130.783M138.894 1987.07V1995.2H130.783M130.783 1987.07H120.645M130.783 1987.07V1995.2M120.645 1987.07H110.507M120.645 1987.07V1995.2M89.2166 1987.07H99.3548M89.2166 1987.07V1995.2H99.3548M99.3548 1987.07V1995.2M99.3548 1987.07H110.507M99.3548 1995.2H110.507M99.3548 1995.2V2007.39H110.507M110.507 1987.07V1995.2M120.645 1995.2H130.783M120.645 1995.2H110.507M120.645 1995.2V2007.39M130.783 1995.2V2007.39H120.645M110.507 1995.2V2007.39M110.507 2007.39H120.645M110.507 2007.39V2017.55H120.645V2007.39M12.1659 1907.8V1898.65H-1.19209e-05V1907.8H12.1659ZM12.1659 1907.8V1917.96H-1.19209e-05V1946.42H12.1659V1938.29H19.2627V1928.12H31.4286V1917.96H41.5668V1907.8H49.6774V1898.65H19.2627V1907.8H12.1659ZM12.1659 2057.19V2046.01H-1.19209e-05V2017.55H12.1659V2025.68H19.2627V2036.86H31.4286V2046.01H41.5668V2057.19H49.6774V2067.35H19.2627V2057.19H12.1659ZM12.1659 2057.19H-1.19209e-05V2067.35H12.1659V2057.19ZM110.507 1917.96V1907.8H99.3548V1898.65H81.106V1907.8H89.2166V1917.96H99.3548V1928.12H110.507V1938.29H99.3548V1947.43H89.2166V1938.29H81.106V1928.12H69.9539V1917.96H60.8295V1928.12H49.6774V1938.29H60.8295V1947.43H69.9539V1956.58H81.106V1968.77H69.9539V1978.94H60.8295V1968.77H49.6774V1956.58H41.5668V1947.43H31.4286V1968.77H41.5668V1978.94H49.6774V1987.07H41.5668V1995.2H31.4286V2017.55H41.5668V2007.39H49.6774V1995.2H60.8295V1987.07H69.9539V1995.2H81.106V2007.39H69.9539V2017.55H60.8295V2025.68H49.6774V2036.86H60.8295V2046.01H69.9539V2036.86H81.106V2025.68H89.2166V2017.55H99.3548V2025.68H110.507V2036.86H99.3548V2046.01H89.2166V2057.19H81.106V2067.35H99.3548V2057.19H110.507V2046.01H120.645V2057.19H130.783V2067.35H150.046V2057.19H138.894V2046.01H130.783V2036.86H120.645V2025.68H130.783V2017.55H138.894V2025.68H150.046V2036.86H160.184V2046.01H170.323V2036.86H179.447V2025.68H170.323V2017.55H160.184V2007.39H150.046V1995.2H160.184V1987.07H170.323V1995.2H179.447V2007.39H189.585V2017.55H199.724V1995.2H189.585V1987.07H179.447V1978.94H189.585V1968.77H199.724V1947.43H189.585V1956.58H179.447V1968.77H170.323V1978.94H160.184V1968.77H150.046V1956.58H160.184V1947.43H170.323V1938.29H179.447V1928.12H170.323V1917.96H160.184V1928.12H150.046V1938.29H138.894V1947.43H130.783V1938.29H120.645V1928.12H130.783V1917.96H138.894V1907.8H150.046V1898.65H130.783V1907.8H120.645V1917.96H110.507ZM12.1659 1978.94V1968.77H-1.19209e-05V1995.2H12.1659V1987.07H19.2627V1978.94H12.1659ZM179.447 2057.19H189.585V2046.01H199.724V2036.86H209.862V2025.68H220V2057.19H209.862V2067.35H179.447V2057.19ZM220 1978.94V1987.07H209.862V1978.94H220ZM220 1938.29H209.862V1928.12H199.724V1917.96H189.585V1907.8H179.447V1898.65H209.862V1907.8H220V1938.29Z" stroke="#393939" stroke-width="3"/>
</g>
</svg>
