<svg width="201" height="91" viewBox="0 0 201 91" fill="none" xmlns="http://www.w3.org/2000/svg">
    <path d="M46.9497 24.9983V31.8026L51.7127 36.5656L63.28 25.6787V8.66797L46.9497 24.9983Z" fill="#759599"/>
    <path d="M44.2285 24.9983V31.8026L39.4655 36.5656L27.8982 25.6787V8.66797L44.2285 24.9983Z" fill="#759599"/>
    <path d="M39.4648 38.6068L45.5887 32.4829L51.7126 38.6068L45.5887 44.7307L39.4648 38.6068Z" fill="#759599"/>
    <path d="M46.9497 5.94622V0.502777L52.3932 5.94622H46.9497Z" fill="#759599"/>
    <path d="M46.9497 8.66788V14.1113L52.3932 8.66788H46.9497Z" fill="#759599"/>
    <path d="M44.2285 5.94622V0.502777L38.7851 5.94622H44.2285Z" fill="#759599"/>
    <path d="M44.2285 8.66788V14.1113L38.7851 8.66788H44.2285Z" fill="#759599"/>
    <rect x="44.2285" y="5.94646" width="2.72172" height="2.72172" fill="#759599"/>
    <rect x="44.2285" y="13.431" width="2.72172" height="10.8869" fill="#759599"/>
    <path d="M46.9497 66.5045V59.7002L51.7127 54.9372L63.28 65.8241V82.8349L46.9497 66.5045Z" fill="#759599"/>
    <path d="M44.2285 66.5045V59.7002L39.4655 54.9372L27.8982 65.8241V82.8349L44.2285 66.5045Z" fill="#759599"/>
    <path d="M39.4648 52.896L45.5887 59.0199L51.7126 52.896L45.5887 46.7722L39.4648 52.896Z" fill="#759599"/>
    <path d="M46.9497 85.5566V91L52.3932 85.5566H46.9497Z" fill="#759599"/>
    <path d="M46.9497 82.835V77.3915L52.3932 82.835H46.9497Z" fill="#759599"/>
    <path d="M44.2285 85.5566V91L38.7851 85.5566H44.2285Z" fill="#759599"/>
    <path d="M44.2285 82.835V77.3915L38.7851 82.835H44.2285Z" fill="#759599"/>
    <rect width="2.72172" height="2.72172" transform="matrix(1 0 0 -1 44.2285 85.5564)" fill="#759599"/>
    <rect width="2.72172" height="10.8869" transform="matrix(1 0 0 -1 44.2285 78.0719)" fill="#759599"/>
    <path d="M66.6814 44.7309H59.8771L55.1141 39.9678L66.001 28.4005H83.0117L66.6814 44.7309Z" fill="#759599"/>
    <path d="M66.6814 47.4523H59.8771L55.1141 52.2154L66.001 63.7827H83.0117L66.6814 47.4523Z" fill="#759599"/>
    <path d="M53.0732 52.2154L59.1971 46.0915L53.0732 39.9677L46.9494 46.0915L53.0732 52.2154Z" fill="#759599"/>
    <path d="M85.7338 44.7309H91.1772L85.7338 39.2874V44.7309Z" fill="#759599"/>
    <path d="M83.0118 44.7309H77.5684L83.0118 39.2874V44.7309Z" fill="#759599"/>
    <path d="M85.7338 47.4523H91.1772L85.7338 52.8958V47.4523Z" fill="#759599"/>
    <path d="M83.0118 47.4523H77.5684L83.0118 52.8958V47.4523Z" fill="#759599"/>
    <rect width="2.72172" height="2.72172" transform="matrix(0 -1 -1 0 85.7339 47.4523)" fill="#759599"/>
    <rect width="2.72172" height="10.8869" transform="matrix(0 -1 -1 0 78.249 47.4523)" fill="#759599"/>
    <path d="M24.4959 44.7309H31.3002L36.0632 39.9678L25.1763 28.4005H8.16553L24.4959 44.7309Z" fill="#759599"/>
    <path d="M24.4959 47.4523H31.3002L36.0632 52.2154L25.1763 63.7827H8.16553L24.4959 47.4523Z" fill="#759599"/>
    <path d="M38.104 52.2153L31.9801 46.0915L38.104 39.9676L44.2279 46.0915L38.104 52.2153Z" fill="#759599"/>
    <path d="M5.44344 44.7309H0L5.44344 39.2874V44.7309Z" fill="#759599"/>
    <path d="M8.16544 44.7309H13.6089L8.16544 39.2874V44.7309Z" fill="#759599"/>
    <path d="M5.44344 47.4523H0L5.44344 52.8958V47.4523Z" fill="#759599"/>
    <path d="M8.16544 47.4523H13.6089L8.16544 52.8958V47.4523Z" fill="#759599"/>
    <rect x="5.44336" y="47.4523" width="2.72172" height="2.72172" transform="rotate(-90 5.44336 47.4523)" fill="#759599"/>
    <rect x="12.9282" y="47.4523" width="2.72172" height="10.8869" transform="rotate(-90 12.9282 47.4523)" fill="#759599"/>
    <path d="M155.88 24.9983V31.8026L160.643 36.5656L172.21 25.6787V8.66797L155.88 24.9983Z" fill="#759599"/>
    <path d="M153.159 24.9983V31.8026L148.396 36.5656L136.828 25.6787V8.66797L153.159 24.9983Z" fill="#759599"/>
    <path d="M148.396 38.6068L154.519 32.4829L160.643 38.6068L154.519 44.7307L148.396 38.6068Z" fill="#759599"/>
    <path d="M155.88 5.94622V0.502777L161.323 5.94622H155.88Z" fill="#759599"/>
    <path d="M155.88 8.66788V14.1113L161.323 8.66788H155.88Z" fill="#759599"/>
    <path d="M153.159 5.94622V0.502777L147.715 5.94622H153.159Z" fill="#759599"/>
    <path d="M153.159 8.66788V14.1113L147.715 8.66788H153.159Z" fill="#759599"/>
    <rect x="153.159" y="5.94646" width="2.72172" height="2.72172" fill="#759599"/>
    <rect x="153.159" y="13.431" width="2.72172" height="10.8869" fill="#759599"/>
    <path d="M155.88 66.5045V59.7002L160.643 54.9372L172.21 65.8241V82.8349L155.88 66.5045Z" fill="#759599"/>
    <path d="M153.159 66.5045V59.7002L148.396 54.9372L136.828 65.8241V82.8349L153.159 66.5045Z" fill="#759599"/>
    <path d="M148.396 52.896L154.519 59.0199L160.643 52.896L154.519 46.7722L148.396 52.896Z" fill="#759599"/>
    <path d="M155.88 85.5566V91L161.323 85.5566H155.88Z" fill="#759599"/>
    <path d="M155.88 82.835V77.3915L161.323 82.835H155.88Z" fill="#759599"/>
    <path d="M153.159 85.5566V91L147.715 85.5566H153.159Z" fill="#759599"/>
    <path d="M153.159 82.835V77.3915L147.715 82.835H153.159Z" fill="#759599"/>
    <rect width="2.72172" height="2.72172" transform="matrix(1 0 0 -1 153.159 85.5564)" fill="#759599"/>
    <rect width="2.72172" height="10.8869" transform="matrix(1 0 0 -1 153.159 78.0719)" fill="#759599"/>
    <path d="M175.613 44.7309H168.808L164.045 39.9678L174.932 28.4005H191.943L175.613 44.7309Z" fill="#759599"/>
    <path d="M175.613 47.4523H168.808L164.045 52.2154L174.932 63.7827H191.943L175.613 47.4523Z" fill="#759599"/>
    <path d="M162.004 52.2153L168.128 46.0915L162.004 39.9676L155.881 46.0915L162.004 52.2153Z" fill="#759599"/>
    <path d="M194.665 44.7309H200.108L194.665 39.2874V44.7309Z" fill="#759599"/>
    <path d="M191.943 44.7309H186.5L191.943 39.2874V44.7309Z" fill="#759599"/>
    <path d="M194.665 47.4523H200.108L194.665 52.8958V47.4523Z" fill="#759599"/>
    <path d="M191.943 47.4523H186.5L191.943 52.8958V47.4523Z" fill="#759599"/>
    <rect width="2.72172" height="2.72172" transform="matrix(0 -1 -1 0 194.665 47.4523)" fill="#759599"/>
    <rect width="2.72172" height="10.8869" transform="matrix(0 -1 -1 0 187.18 47.4523)" fill="#759599"/>
    <path d="M133.427 44.7309H140.231L144.994 39.9678L134.107 28.4005H117.096L133.427 44.7309Z" fill="#759599"/>
    <path d="M133.427 47.4523H140.231L144.994 52.2154L134.107 63.7827H117.096L133.427 47.4523Z" fill="#759599"/>
    <path d="M147.036 52.2154L140.912 46.0915L147.036 39.9677L153.16 46.0915L147.036 52.2154Z" fill="#759599"/>
    <path d="M114.375 44.7309H108.931L114.375 39.2874V44.7309Z" fill="#759599"/>
    <path d="M117.096 44.7309H122.54L117.096 39.2874V44.7309Z" fill="#759599"/>
    <path d="M114.375 47.4523H108.931L114.375 52.8958V47.4523Z" fill="#759599"/>
    <path d="M117.096 47.4523H122.54L117.096 52.8958V47.4523Z" fill="#759599"/>
    <rect x="114.375" y="47.4523" width="2.72172" height="2.72172" transform="rotate(-90 114.375 47.4523)" fill="#759599"/>
    <rect x="121.859" y="47.4523" width="2.72172" height="10.8869" transform="rotate(-90 121.859 47.4523)" fill="#759599"/>
</svg>
