<svg width="840" height="201" viewBox="0 0 840 201" fill="none" xmlns="http://www.w3.org/2000/svg">
    <path d="M24.4954 154.05H31.2997L36.0627 149.287L25.1758 137.72H8.16504L24.4954 154.05Z" fill="#759599"/>
    <path d="M24.4954 156.772H31.2997L36.0627 161.535L25.1758 173.102H8.16504L24.4954 156.772Z" fill="#759599"/>
    <path d="M38.1045 161.534L31.9806 155.41L38.1045 149.286L44.2284 155.41L38.1045 161.534Z" fill="#759599"/>
    <path d="M5.44344 154.05H0L5.44344 148.607V154.05Z" fill="#759599"/>
    <path d="M8.16496 154.05H13.6084L8.16496 148.607V154.05Z" fill="#759599"/>
    <path d="M5.44344 156.772H0L5.44344 162.215V156.772Z" fill="#759599"/>
    <path d="M8.16496 156.772H13.6084L8.16496 162.215V156.772Z" fill="#759599"/>
    <rect x="5.44336" y="156.772" width="2.72172" height="2.72172" transform="rotate(-90 5.44336 156.772)" fill="#759599"/>
    <rect x="12.9282" y="156.772" width="2.72172" height="10.8869" transform="rotate(-90 12.9282 156.772)" fill="#759599"/>
    <path d="M66.0017 154.05H59.1974L54.4344 149.287L65.3213 137.72H82.332L66.0017 154.05Z" fill="#759599"/>
    <path d="M66.0017 156.772H59.1974L54.4344 161.535L65.3213 173.102H82.332L66.0017 156.772Z" fill="#759599"/>
    <path d="M52.3931 161.534L58.5169 155.41L52.3931 149.286L46.2692 155.41L52.3931 161.534Z" fill="#759599"/>
    <path d="M85.0536 154.05H90.4971L85.0536 148.607V154.05Z" fill="#759599"/>
    <path d="M82.3321 154.05H76.8887L82.3321 148.607V154.05Z" fill="#759599"/>
    <path d="M85.0536 156.772H90.4971L85.0536 162.215V156.772Z" fill="#759599"/>
    <path d="M82.3321 156.772H76.8887L82.3321 162.215V156.772Z" fill="#759599"/>
    <rect width="2.72172" height="2.72172" transform="matrix(0 -1 -1 0 85.0537 156.772)" fill="#759599"/>
    <rect width="2.72172" height="10.8869" transform="matrix(0 -1 -1 0 77.5688 156.772)" fill="#759599"/>
    <path d="M44.228 134.318V141.123L39.465 145.886L27.8977 134.999L27.8977 117.988L44.228 134.318Z" fill="#759599"/>
    <path d="M46.9502 134.318V141.123L51.7132 145.886L63.2805 134.999V117.988L46.9502 134.318Z" fill="#759599"/>
    <path d="M51.7129 147.927L45.589 141.803L39.4651 147.927L45.589 154.051L51.7129 147.927Z" fill="#759599"/>
    <path d="M44.228 115.266V109.823L38.7846 115.266H44.228Z" fill="#759599"/>
    <path d="M44.228 117.988V123.432L38.7846 117.988H44.228Z" fill="#759599"/>
    <path d="M46.9502 115.266V109.823L52.3936 115.266H46.9502Z" fill="#759599"/>
    <path d="M46.9502 117.988V123.432L52.3936 117.988H46.9502Z" fill="#759599"/>
    <rect width="2.72172" height="2.72172" transform="matrix(-1 0 0 1 46.9502 115.266)" fill="#759599"/>
    <rect width="2.72172" height="10.8869" transform="matrix(-1 0 0 1 46.9502 122.751)" fill="#759599"/>
    <path d="M44.228 176.504V169.7L39.465 164.937L27.8977 175.824V192.835L44.228 176.504Z" fill="#759599"/>
    <path d="M46.9502 176.504V169.7L51.7132 164.937L63.2805 175.824V192.835L46.9502 176.504Z" fill="#759599"/>
    <path d="M51.7129 162.896L45.589 169.02L39.4651 162.896L45.589 156.772L51.7129 162.896Z" fill="#759599"/>
    <path d="M44.228 195.557V201L38.7846 195.557H44.228Z" fill="#759599"/>
    <path d="M44.228 192.835V187.391L38.7846 192.835H44.228Z" fill="#759599"/>
    <path d="M46.9502 195.557V201L52.3936 195.557H46.9502Z" fill="#759599"/>
    <path d="M46.9502 192.835V187.391L52.3936 192.835H46.9502Z" fill="#759599"/>
    <rect x="46.9502" y="195.557" width="2.72172" height="2.72172" transform="rotate(-180 46.9502 195.557)" fill="#759599"/>
    <rect x="46.9502" y="188.072" width="2.72172" height="10.8869" transform="rotate(-180 46.9502 188.072)" fill="#759599"/>
    <path d="M402.727 154.051H409.532L414.295 149.288L403.408 137.72H386.397L402.727 154.051Z" fill="#759599"/>
    <path d="M402.727 156.773H409.532L414.295 161.536L403.408 173.103H386.397L402.727 156.773Z" fill="#759599"/>
    <path d="M416.336 161.536L410.212 155.412L416.336 149.288L422.46 155.412L416.336 161.536Z" fill="#759599"/>
    <path d="M383.675 154.051H378.232L383.675 148.607V154.051Z" fill="#759599"/>
    <path d="M386.397 154.051H391.84L386.397 148.607V154.051Z" fill="#759599"/>
    <path d="M383.675 156.773H378.232L383.675 162.216V156.773Z" fill="#759599"/>
    <path d="M386.397 156.773H391.84L386.397 162.216V156.773Z" fill="#759599"/>
    <rect x="383.675" y="156.773" width="2.72172" height="2.72172" transform="rotate(-90 383.675 156.773)" fill="#759599"/>
    <rect x="391.16" y="156.773" width="2.72172" height="10.8869" transform="rotate(-90 391.16 156.773)" fill="#759599"/>
    <path d="M444.234 154.051H437.429L432.666 149.288L443.553 137.72H460.564L444.234 154.051Z" fill="#759599"/>
    <path d="M444.234 156.773H437.429L432.666 161.536L443.553 173.103H460.564L444.234 156.773Z" fill="#759599"/>
    <path d="M430.625 161.536L436.749 155.412L430.625 149.288L424.501 155.412L430.625 161.536Z" fill="#759599"/>
    <path d="M463.286 154.051H468.729L463.286 148.607V154.051Z" fill="#759599"/>
    <path d="M460.564 154.051H455.121L460.564 148.607V154.051Z" fill="#759599"/>
    <path d="M463.286 156.773H468.729L463.286 162.216V156.773Z" fill="#759599"/>
    <path d="M460.564 156.773H455.121L460.564 162.216V156.773Z" fill="#759599"/>
    <rect width="2.72172" height="2.72172" transform="matrix(0 -1 -1 0 463.285 156.773)" fill="#759599"/>
    <rect width="2.72172" height="10.8869" transform="matrix(0 -1 -1 0 455.801 156.773)" fill="#759599"/>
    <path d="M422.459 134.318V141.123L417.696 145.886L406.129 134.999V117.988L422.459 134.318Z" fill="#759599"/>
    <path d="M425.181 134.318V141.123L429.944 145.886L441.511 134.999V117.988L425.181 134.318Z" fill="#759599"/>
    <path d="M429.944 147.927L423.82 141.803L417.697 147.927L423.82 154.05L429.944 147.927Z" fill="#759599"/>
    <path d="M422.459 115.266V109.823L417.016 115.266H422.459Z" fill="#759599"/>
    <path d="M422.459 117.988V123.432L417.016 117.988H422.459Z" fill="#759599"/>
    <path d="M425.181 115.266V109.823L430.625 115.266H425.181Z" fill="#759599"/>
    <path d="M425.181 117.988V123.432L430.625 117.988H425.181Z" fill="#759599"/>
    <rect width="2.72172" height="2.72172" transform="matrix(-1 0 0 1 425.181 115.266)" fill="#759599"/>
    <rect width="2.72172" height="10.8869" transform="matrix(-1 0 0 1 425.181 122.751)" fill="#759599"/>
    <path d="M422.459 176.504V169.7L417.696 164.937L406.129 175.824V192.835L422.459 176.504Z" fill="#759599"/>
    <path d="M425.181 176.504V169.7L429.944 164.937L441.511 175.824V192.835L425.181 176.504Z" fill="#759599"/>
    <path d="M429.944 162.896L423.82 169.02L417.697 162.896L423.82 156.772L429.944 162.896Z" fill="#759599"/>
    <path d="M422.459 195.557V201L417.016 195.557H422.459Z" fill="#759599"/>
    <path d="M422.459 192.835V187.391L417.016 192.835H422.459Z" fill="#759599"/>
    <path d="M425.181 195.557V201L430.625 195.557H425.181Z" fill="#759599"/>
    <path d="M425.181 192.835V187.391L430.625 192.835H425.181Z" fill="#759599"/>
    <rect x="425.181" y="195.557" width="2.72172" height="2.72172" transform="rotate(-180 425.181 195.557)" fill="#759599"/>
    <rect x="425.181" y="188.072" width="2.72172" height="10.8869" transform="rotate(-180 425.181 188.072)" fill="#759599"/>
    <path d="M773.998 154.05H780.803L785.566 149.287L774.679 137.72H757.668L773.998 154.05Z" fill="#759599"/>
    <path d="M773.998 156.772H780.803L785.566 161.535L774.679 173.102H757.668L773.998 156.772Z" fill="#759599"/>
    <path d="M787.607 161.535L781.483 155.411L787.607 149.287L793.731 155.411L787.607 161.535Z" fill="#759599"/>
    <path d="M754.946 154.05H749.503L754.946 148.607V154.05Z" fill="#759599"/>
    <path d="M757.668 154.05H763.111L757.668 148.607V154.05Z" fill="#759599"/>
    <path d="M754.946 156.772H749.503L754.946 162.215V156.772Z" fill="#759599"/>
    <path d="M757.668 156.772H763.111L757.668 162.215V156.772Z" fill="#759599"/>
    <rect x="754.947" y="156.772" width="2.72172" height="2.72172" transform="rotate(-90 754.947 156.772)" fill="#759599"/>
    <rect x="762.431" y="156.772" width="2.72172" height="10.8869" transform="rotate(-90 762.431 156.772)" fill="#759599"/>
    <path d="M815.505 154.05H808.7L803.937 149.287L814.824 137.72H831.835L815.505 154.05Z" fill="#759599"/>
    <path d="M815.505 156.772H808.7L803.937 161.535L814.824 173.102H831.835L815.505 156.772Z" fill="#759599"/>
    <path d="M801.896 161.535L808.02 155.411L801.896 149.287L795.772 155.411L801.896 161.535Z" fill="#759599"/>
    <path d="M834.557 154.05H840L834.557 148.607V154.05Z" fill="#759599"/>
    <path d="M831.835 154.05H826.392L831.835 148.607V154.05Z" fill="#759599"/>
    <path d="M834.557 156.772H840L834.557 162.215V156.772Z" fill="#759599"/>
    <path d="M831.835 156.772H826.392L831.835 162.215V156.772Z" fill="#759599"/>
    <rect width="2.72172" height="2.72172" transform="matrix(0 -1 -1 0 834.556 156.772)" fill="#759599"/>
    <rect width="2.72172" height="10.8869" transform="matrix(0 -1 -1 0 827.072 156.772)" fill="#759599"/>
    <path d="M793.731 134.318V141.123L788.968 145.886L777.401 134.999V117.988L793.731 134.318Z" fill="#759599"/>
    <path d="M796.452 134.318V141.123L801.215 145.886L812.782 134.999V117.988L796.452 134.318Z" fill="#759599"/>
    <path d="M801.215 147.927L795.091 141.803L788.968 147.927L795.091 154.05L801.215 147.927Z" fill="#759599"/>
    <path d="M793.731 115.266V109.823L788.288 115.266H793.731Z" fill="#759599"/>
    <path d="M793.731 117.988V123.432L788.288 117.988H793.731Z" fill="#759599"/>
    <path d="M796.452 115.266V109.823L801.896 115.266H796.452Z" fill="#759599"/>
    <path d="M796.452 117.988V123.432L801.896 117.988H796.452Z" fill="#759599"/>
    <rect width="2.72172" height="2.72172" transform="matrix(-1 0 0 1 796.452 115.266)" fill="#759599"/>
    <rect width="2.72172" height="10.8869" transform="matrix(-1 0 0 1 796.452 122.751)" fill="#759599"/>
    <path d="M793.731 176.504V169.7L788.968 164.937L777.401 175.824V192.835L793.731 176.504Z" fill="#759599"/>
    <path d="M796.452 176.504V169.7L801.215 164.937L812.782 175.824V192.835L796.452 176.504Z" fill="#759599"/>
    <path d="M801.215 162.896L795.091 169.02L788.968 162.896L795.091 156.772L801.215 162.896Z" fill="#759599"/>
    <path d="M793.731 195.557V201L788.288 195.557H793.731Z" fill="#759599"/>
    <path d="M793.731 192.835V187.391L788.288 192.835H793.731Z" fill="#759599"/>
    <path d="M796.452 195.557V201L801.896 195.557H796.452Z" fill="#759599"/>
    <path d="M796.452 192.835V187.391L801.896 192.835H796.452Z" fill="#759599"/>
    <rect x="796.452" y="195.557" width="2.72172" height="2.72172" transform="rotate(-180 796.452 195.557)" fill="#759599"/>
    <rect x="796.452" y="188.072" width="2.72172" height="10.8869" transform="rotate(-180 796.452 188.072)" fill="#759599"/>
    <path d="M24.4954 45.7517H31.2997L36.0627 40.9887L25.1758 29.4214H8.16504L24.4954 45.7517Z" fill="#759599"/>
    <path d="M24.4954 48.4736H31.2997L36.0627 53.2366L25.1758 64.804H8.16504L24.4954 48.4736Z" fill="#759599"/>
    <path d="M38.1045 53.2366L31.9806 47.1127L38.1045 40.9888L44.2284 47.1127L38.1045 53.2366Z" fill="#759599"/>
    <path d="M5.44344 45.7517H0L5.44344 40.3083V45.7517Z" fill="#759599"/>
    <path d="M8.16496 45.7517H13.6084L8.16496 40.3083V45.7517Z" fill="#759599"/>
    <path d="M5.44344 48.4736H0L5.44344 53.9171V48.4736Z" fill="#759599"/>
    <path d="M8.16496 48.4736H13.6084L8.16496 53.9171V48.4736Z" fill="#759599"/>
    <rect x="5.44336" y="48.4736" width="2.72172" height="2.72172" transform="rotate(-90 5.44336 48.4736)" fill="#759599"/>
    <rect x="12.9282" y="48.4736" width="2.72172" height="10.8869" transform="rotate(-90 12.9282 48.4736)" fill="#759599"/>
    <path d="M66.0017 45.7517H59.1974L54.4344 40.9887L65.3213 29.4214H82.332L66.0017 45.7517Z" fill="#759599"/>
    <path d="M66.0017 48.4736H59.1974L54.4344 53.2366L65.3213 64.804H82.332L66.0017 48.4736Z" fill="#759599"/>
    <path d="M52.3931 53.2366L58.5169 47.1127L52.3931 40.9888L46.2692 47.1127L52.3931 53.2366Z" fill="#759599"/>
    <path d="M85.0536 45.7517H90.4971L85.0536 40.3083V45.7517Z" fill="#759599"/>
    <path d="M82.3321 45.7517H76.8887L82.3321 40.3083V45.7517Z" fill="#759599"/>
    <path d="M85.0536 48.4736H90.4971L85.0536 53.9171V48.4736Z" fill="#759599"/>
    <path d="M82.3321 48.4736H76.8887L82.3321 53.9171V48.4736Z" fill="#759599"/>
    <rect width="2.72172" height="2.72172" transform="matrix(0 -1 -1 0 85.0537 48.4736)" fill="#759599"/>
    <rect width="2.72172" height="10.8869" transform="matrix(0 -1 -1 0 77.5688 48.4736)" fill="#759599"/>
    <path d="M44.228 26.0205V32.8248L39.465 37.5878L27.8977 26.7009L27.8977 9.69019L44.228 26.0205Z" fill="#759599"/>
    <path d="M46.9502 26.0205V32.8248L51.7132 37.5878L63.2805 26.7009V9.69019L46.9502 26.0205Z" fill="#759599"/>
    <path d="M51.7129 39.6287L45.589 33.5048L39.4651 39.6287L45.589 45.7525L51.7129 39.6287Z" fill="#759599"/>
    <path d="M44.228 6.9681V1.52466L38.7846 6.9681L44.228 6.9681Z" fill="#759599"/>
    <path d="M44.228 9.6901V15.1335L38.7846 9.6901H44.228Z" fill="#759599"/>
    <path d="M46.9502 6.9681V1.52466L52.3936 6.9681L46.9502 6.9681Z" fill="#759599"/>
    <path d="M46.9502 9.6901V15.1335L52.3936 9.6901H46.9502Z" fill="#759599"/>
    <rect width="2.72172" height="2.72172" transform="matrix(-1 0 0 1 46.9502 6.96802)" fill="#759599"/>
    <rect width="2.72172" height="10.8869" transform="matrix(-1 0 0 1 46.9502 14.4531)" fill="#759599"/>
    <path d="M44.228 68.2068V61.4025L39.465 56.6395L27.8977 67.5263V84.5371L44.228 68.2068Z" fill="#759599"/>
    <path d="M46.9502 68.2068V61.4025L51.7132 56.6395L63.2805 67.5263V84.5371L46.9502 68.2068Z" fill="#759599"/>
    <path d="M51.7129 54.5977L45.589 60.7215L39.4651 54.5977L45.589 48.4738L51.7129 54.5977Z" fill="#759599"/>
    <path d="M44.228 87.2585V92.7019L38.7846 87.2585H44.228Z" fill="#759599"/>
    <path d="M44.228 84.5369V79.0935L38.7846 84.5369H44.228Z" fill="#759599"/>
    <path d="M46.9502 87.2585V92.7019L52.3936 87.2585H46.9502Z" fill="#759599"/>
    <path d="M46.9502 84.5369V79.0935L52.3936 84.5369H46.9502Z" fill="#759599"/>
    <rect x="46.9502" y="87.2581" width="2.72172" height="2.72172" transform="rotate(-180 46.9502 87.2581)" fill="#759599"/>
    <rect x="46.9502" y="79.7734" width="2.72172" height="10.8869" transform="rotate(-180 46.9502 79.7734)" fill="#759599"/>
    <path d="M402.727 45.1199H409.532L414.295 40.3569L403.408 28.7895H386.397L402.727 45.1199Z" fill="#759599"/>
    <path d="M402.727 47.8416H409.532L414.295 52.6046L403.408 64.1719H386.397L402.727 47.8416Z" fill="#759599"/>
    <path d="M416.336 52.6045L410.212 46.4806L416.336 40.3567L422.46 46.4806L416.336 52.6045Z" fill="#759599"/>
    <path d="M383.675 45.1199H378.232L383.675 39.6764V45.1199Z" fill="#759599"/>
    <path d="M386.397 45.1199H391.84L386.397 39.6764V45.1199Z" fill="#759599"/>
    <path d="M383.675 47.8416H378.232L383.675 53.285V47.8416Z" fill="#759599"/>
    <path d="M386.397 47.8416H391.84L386.397 53.285V47.8416Z" fill="#759599"/>
    <rect x="383.675" y="47.8416" width="2.72172" height="2.72172" transform="rotate(-90 383.675 47.8416)" fill="#759599"/>
    <rect x="391.16" y="47.8416" width="2.72172" height="10.8869" transform="rotate(-90 391.16 47.8416)" fill="#759599"/>
    <path d="M444.233 45.1199H437.429L432.666 40.3569L443.553 28.7895H460.563L444.233 45.1199Z" fill="#759599"/>
    <path d="M444.233 47.8416H437.429L432.666 52.6046L443.553 64.1719H460.563L444.233 47.8416Z" fill="#759599"/>
    <path d="M430.625 52.6045L436.749 46.4806L430.625 40.3567L424.501 46.4806L430.625 52.6045Z" fill="#759599"/>
    <path d="M463.286 45.1199H468.729L463.286 39.6764V45.1199Z" fill="#759599"/>
    <path d="M460.564 45.1199H455.121L460.564 39.6764V45.1199Z" fill="#759599"/>
    <path d="M463.286 47.8416H468.729L463.286 53.285V47.8416Z" fill="#759599"/>
    <path d="M460.564 47.8416H455.121L460.564 53.285V47.8416Z" fill="#759599"/>
    <rect width="2.72172" height="2.72172" transform="matrix(0 -1 -1 0 463.285 47.8416)" fill="#759599"/>
    <rect width="2.72172" height="10.8869" transform="matrix(0 -1 -1 0 455.801 47.8416)" fill="#759599"/>
    <path d="M422.459 25.3872V32.1915L417.696 36.9545L406.129 26.0676V9.05688L422.459 25.3872Z" fill="#759599"/>
    <path d="M425.181 25.3872V32.1915L429.944 36.9545L441.511 26.0676V9.05688L425.181 25.3872Z" fill="#759599"/>
    <path d="M429.944 38.9956L423.82 32.8717L417.697 38.9956L423.82 45.1195L429.944 38.9956Z" fill="#759599"/>
    <path d="M422.459 6.33504V0.891602L417.016 6.33504L422.459 6.33504Z" fill="#759599"/>
    <path d="M422.459 9.05705V14.5005L417.016 9.05705H422.459Z" fill="#759599"/>
    <path d="M425.181 6.33504V0.891602L430.625 6.33504L425.181 6.33504Z" fill="#759599"/>
    <path d="M425.181 9.05705V14.5005L430.625 9.05705H425.181Z" fill="#759599"/>
    <rect width="2.72172" height="2.72172" transform="matrix(-1 0 0 1 425.181 6.33496)" fill="#759599"/>
    <rect width="2.72172" height="10.8869" transform="matrix(-1 0 0 1 425.181 13.8201)" fill="#759599"/>
    <path d="M422.459 67.5737V60.7694L417.696 56.0064L406.129 66.8933V83.9041L422.459 67.5737Z" fill="#759599"/>
    <path d="M425.181 67.5737V60.7694L429.944 56.0064L441.511 66.8933V83.9041L425.181 67.5737Z" fill="#759599"/>
    <path d="M429.944 53.9641L423.82 60.088L417.697 53.9641L423.82 47.8402L429.944 53.9641Z" fill="#759599"/>
    <path d="M422.459 86.6254V92.0688L417.016 86.6254H422.459Z" fill="#759599"/>
    <path d="M422.459 83.9039V78.4604L417.016 83.9039H422.459Z" fill="#759599"/>
    <path d="M425.181 86.6254V92.0688L430.625 86.6254H425.181Z" fill="#759599"/>
    <path d="M425.181 83.9039V78.4604L430.625 83.9039H425.181Z" fill="#759599"/>
    <rect x="425.181" y="86.6255" width="2.72172" height="2.72172" transform="rotate(-180 425.181 86.6255)" fill="#759599"/>
    <rect x="425.181" y="79.1409" width="2.72172" height="10.8869" transform="rotate(-180 425.181 79.1409)" fill="#759599"/>
    <path d="M773.998 45.1199H780.803L785.566 40.3569L774.679 28.7895H757.668L773.998 45.1199Z" fill="#759599"/>
    <path d="M773.998 47.8416H780.803L785.566 52.6046L774.679 64.1719H757.668L773.998 47.8416Z" fill="#759599"/>
    <path d="M787.607 52.6045L781.483 46.4806L787.607 40.3567L793.731 46.4806L787.607 52.6045Z" fill="#759599"/>
    <path d="M754.946 45.1199H749.503L754.946 39.6764V45.1199Z" fill="#759599"/>
    <path d="M757.668 45.1199H763.111L757.668 39.6764V45.1199Z" fill="#759599"/>
    <path d="M754.946 47.8416H749.503L754.946 53.285V47.8416Z" fill="#759599"/>
    <path d="M757.668 47.8416H763.111L757.668 53.285V47.8416Z" fill="#759599"/>
    <rect x="754.947" y="47.8416" width="2.72172" height="2.72172" transform="rotate(-90 754.947 47.8416)" fill="#759599"/>
    <rect x="762.431" y="47.8416" width="2.72172" height="10.8869" transform="rotate(-90 762.431 47.8416)" fill="#759599"/>
    <path d="M815.505 45.1199H808.7L803.937 40.3569L814.824 28.7895H831.835L815.505 45.1199Z" fill="#759599"/>
    <path d="M815.505 47.8416H808.7L803.937 52.6046L814.824 64.1719H831.835L815.505 47.8416Z" fill="#759599"/>
    <path d="M801.896 52.6045L808.02 46.4806L801.896 40.3567L795.772 46.4806L801.896 52.6045Z" fill="#759599"/>
    <path d="M834.557 45.1199H840L834.557 39.6764V45.1199Z" fill="#759599"/>
    <path d="M831.835 45.1199H826.392L831.835 39.6764V45.1199Z" fill="#759599"/>
    <path d="M834.557 47.8416H840L834.557 53.285V47.8416Z" fill="#759599"/>
    <path d="M831.835 47.8416H826.392L831.835 53.285V47.8416Z" fill="#759599"/>
    <rect width="2.72172" height="2.72172" transform="matrix(0 -1 -1 0 834.556 47.8416)" fill="#759599"/>
    <rect width="2.72172" height="10.8869" transform="matrix(0 -1 -1 0 827.072 47.8416)" fill="#759599"/>
    <path d="M793.731 25.3872V32.1915L788.968 36.9545L777.401 26.0676V9.05688L793.731 25.3872Z" fill="#759599"/>
    <path d="M796.452 25.3872V32.1915L801.215 36.9545L812.782 26.0676V9.05688L796.452 25.3872Z" fill="#759599"/>
    <path d="M801.215 38.9956L795.091 32.8717L788.968 38.9956L795.091 45.1195L801.215 38.9956Z" fill="#759599"/>
    <path d="M793.731 6.33504V0.891602L788.288 6.33504L793.731 6.33504Z" fill="#759599"/>
    <path d="M793.731 9.05704V14.5005L788.288 9.05704H793.731Z" fill="#759599"/>
    <path d="M796.452 6.33504V0.891602L801.896 6.33504L796.452 6.33504Z" fill="#759599"/>
    <path d="M796.452 9.05704V14.5005L801.896 9.05704H796.452Z" fill="#759599"/>
    <rect width="2.72172" height="2.72172" transform="matrix(-1 0 0 1 796.452 6.33496)" fill="#759599"/>
    <rect width="2.72172" height="10.8869" transform="matrix(-1 0 0 1 796.452 13.8201)" fill="#759599"/>
    <path d="M793.731 67.5737V60.7694L788.968 56.0064L777.401 66.8933V83.9041L793.731 67.5737Z" fill="#759599"/>
    <path d="M796.452 67.5737V60.7694L801.215 56.0064L812.782 66.8933V83.9041L796.452 67.5737Z" fill="#759599"/>
    <path d="M801.215 53.9641L795.091 60.088L788.968 53.9641L795.091 47.8402L801.215 53.9641Z" fill="#759599"/>
    <path d="M793.731 86.6254V92.0688L788.288 86.6254H793.731Z" fill="#759599"/>
    <path d="M793.731 83.9039V78.4604L788.288 83.9039H793.731Z" fill="#759599"/>
    <path d="M796.452 86.6254V92.0688L801.896 86.6254H796.452Z" fill="#759599"/>
    <path d="M796.452 83.9039V78.4604L801.896 83.9039H796.452Z" fill="#759599"/>
    <rect x="796.452" y="86.6255" width="2.72172" height="2.72172" transform="rotate(-180 796.452 86.6255)" fill="#759599"/>
    <rect x="796.452" y="79.1409" width="2.72172" height="10.8869" transform="rotate(-180 796.452 79.1409)" fill="#759599"/>
    <path d="M229.724 155.754L233.205 159.235L236.685 155.754L233.205 152.274L229.724 155.754Z" fill="#759599"/>
    <path d="M214.052 153.772H229.242L213.392 138.582H198.202L214.052 153.772Z" fill="#759599" stroke="#759599" stroke-width="0.660434"/>
    <path d="M214.052 157.735H229.242L213.392 172.925H198.202L214.052 157.735Z" fill="#759599" stroke="#759599" stroke-width="0.660434"/>
    <path d="M197.541 163.018L190.276 156.084L197.541 149.149L204.476 156.084L197.541 163.018Z" fill="#759599" stroke="#759599" stroke-width="0.660434"/>
    <path d="M252.357 153.772H237.167L253.018 138.582H268.208L252.357 153.772Z" fill="#759599" stroke="#759599" stroke-width="0.660434"/>
    <path d="M252.357 157.735H237.167L253.018 172.925H268.208L252.357 157.735Z" fill="#759599" stroke="#759599" stroke-width="0.660434"/>
    <path d="M268.868 163.018L276.133 156.084L268.868 149.149L261.933 156.084L268.868 163.018Z" fill="#759599" stroke="#759599" stroke-width="0.660434"/>
    <path d="M231.223 136.601V151.791L216.033 135.941V120.751L231.223 136.601Z" fill="#759599" stroke="#759599" stroke-width="0.660434"/>
    <path d="M235.186 136.601V151.791L250.376 135.941V120.751L235.186 136.601Z" fill="#759599" stroke="#759599" stroke-width="0.660434"/>
    <path d="M240.47 120.091L233.535 112.826L226.601 120.091L233.535 127.025L240.47 120.091Z" fill="#759599" stroke="#759599" stroke-width="0.660434"/>
    <path d="M231.223 174.906V159.716L216.033 175.567V190.757L231.223 174.906Z" fill="#759599" stroke="#759599" stroke-width="0.660434"/>
    <path d="M235.186 174.906V159.716L250.376 175.567V190.757L235.186 174.906Z" fill="#759599" stroke="#759599" stroke-width="0.660434"/>
    <path d="M240.47 191.418L233.535 198.682L226.601 191.418L233.535 184.483L240.47 191.418Z" fill="#759599" stroke="#759599" stroke-width="0.660434"/>
    <path d="M589.963 153.772H605.153L589.303 138.582H574.113L589.963 153.772Z" fill="#759599" stroke="#759599" stroke-width="0.660434"/>
    <path d="M589.963 157.735H605.153L589.303 172.925H574.113L589.963 157.735Z" fill="#759599" stroke="#759599" stroke-width="0.660434"/>
    <path d="M573.452 163.018L566.188 156.084L573.452 149.149L580.387 156.084L573.452 163.018Z" fill="#759599" stroke="#759599" stroke-width="0.660434"/>
    <path d="M628.268 153.772H613.078L628.929 138.582H644.119L628.268 153.772Z" fill="#759599" stroke="#759599" stroke-width="0.660434"/>
    <path d="M628.268 157.735H613.078L628.929 172.925H644.119L628.268 157.735Z" fill="#759599" stroke="#759599" stroke-width="0.660434"/>
    <path d="M644.779 163.018L652.044 156.084L644.779 149.149L637.845 156.084L644.779 163.018Z" fill="#759599" stroke="#759599" stroke-width="0.660434"/>
    <path d="M607.134 136.601V151.791L591.944 135.941V120.751L607.134 136.601Z" fill="#759599" stroke="#759599" stroke-width="0.660434"/>
    <path d="M611.097 136.601V151.791L626.287 135.941V120.751L611.097 136.601Z" fill="#759599" stroke="#759599" stroke-width="0.660434"/>
    <path d="M616.381 120.091L609.446 112.826L602.512 120.091L609.446 127.025L616.381 120.091Z" fill="#759599" stroke="#759599" stroke-width="0.660434"/>
    <path d="M607.134 174.906V159.716L591.944 175.567V190.757L607.134 174.906Z" fill="#759599" stroke="#759599" stroke-width="0.660434"/>
    <path d="M611.097 174.906V159.716L626.287 175.567V190.757L611.097 174.906Z" fill="#759599" stroke="#759599" stroke-width="0.660434"/>
    <path d="M616.381 191.418L609.446 198.682L602.512 191.418L609.446 184.483L616.381 191.418Z" fill="#759599" stroke="#759599" stroke-width="0.660434"/>
    <path d="M214.052 44.8418H229.242L213.392 29.6518H198.202L214.052 44.8418Z" fill="#759599" stroke="#759599" stroke-width="0.660434"/>
    <path d="M214.052 48.804H229.242L213.392 63.9939H198.202L214.052 48.804Z" fill="#759599" stroke="#759599" stroke-width="0.660434"/>
    <path d="M197.541 54.0872L190.276 47.1526L197.541 40.2181L204.476 47.1526L197.541 54.0872Z" fill="#759599" stroke="#759599" stroke-width="0.660434"/>
    <path d="M252.357 44.8418H237.167L253.018 29.6518H268.208L252.357 44.8418Z" fill="#759599" stroke="#759599" stroke-width="0.660434"/>
    <path d="M252.357 48.804H237.167L253.018 63.9939H268.208L252.357 48.804Z" fill="#759599" stroke="#759599" stroke-width="0.660434"/>
    <path d="M268.868 54.0872L276.133 47.1526L268.868 40.2181L261.933 47.1526L268.868 54.0872Z" fill="#759599" stroke="#759599" stroke-width="0.660434"/>
    <path d="M231.223 27.6707V42.8607L216.033 27.0103V11.8203L231.223 27.6707Z" fill="#759599" stroke="#759599" stroke-width="0.660434"/>
    <path d="M235.186 27.6707V42.8607L250.376 27.0103V11.8203L235.186 27.6707Z" fill="#759599" stroke="#759599" stroke-width="0.660434"/>
    <path d="M240.47 11.16L233.535 3.89526L226.601 11.16L233.535 18.0946L240.47 11.16Z" fill="#759599" stroke="#759599" stroke-width="0.660434"/>
    <path d="M231.223 65.9758V50.7858L216.033 66.6362V81.8262L231.223 65.9758Z" fill="#759599" stroke="#759599" stroke-width="0.660434"/>
    <path d="M235.186 65.9758V50.7858L250.376 66.6362V81.8262L235.186 65.9758Z" fill="#759599" stroke="#759599" stroke-width="0.660434"/>
    <path d="M240.47 82.4865L233.535 89.7512L226.601 82.4865L233.535 75.5519L240.47 82.4865Z" fill="#759599" stroke="#759599" stroke-width="0.660434"/>
    <path d="M229.724 46.823L233.205 50.3037L236.685 46.823L233.205 43.3424L229.724 46.823Z" fill="#759599"/>
    <path d="M589.963 44.8418H605.153L589.303 29.6518H574.113L589.963 44.8418Z" fill="#759599" stroke="#759599" stroke-width="0.660434"/>
    <path d="M589.963 48.804H605.153L589.303 63.9939H574.113L589.963 48.804Z" fill="#759599" stroke="#759599" stroke-width="0.660434"/>
    <path d="M573.452 54.0872L566.188 47.1526L573.452 40.2181L580.387 47.1526L573.452 54.0872Z" fill="#759599" stroke="#759599" stroke-width="0.660434"/>
    <path d="M628.268 44.8418H613.078L628.929 29.6518H644.119L628.268 44.8418Z" fill="#759599" stroke="#759599" stroke-width="0.660434"/>
    <path d="M628.268 48.804H613.078L628.929 63.9939H644.119L628.268 48.804Z" fill="#759599" stroke="#759599" stroke-width="0.660434"/>
    <path d="M644.779 54.0872L652.044 47.1526L644.779 40.2181L637.845 47.1526L644.779 54.0872Z" fill="#759599" stroke="#759599" stroke-width="0.660434"/>
    <path d="M607.134 27.6707V42.8607L591.944 27.0103V11.8203L607.134 27.6707Z" fill="#759599" stroke="#759599" stroke-width="0.660434"/>
    <path d="M611.097 27.6707V42.8607L626.287 27.0103V11.8203L611.097 27.6707Z" fill="#759599" stroke="#759599" stroke-width="0.660434"/>
    <path d="M616.381 11.16L609.446 3.89526L602.512 11.16L609.446 18.0946L616.381 11.16Z" fill="#759599" stroke="#759599" stroke-width="0.660434"/>
    <path d="M607.134 65.9758V50.7858L591.944 66.6362V81.8262L607.134 65.9758Z" fill="#759599" stroke="#759599" stroke-width="0.660434"/>
    <path d="M611.097 65.9758V50.7858L626.287 66.6362V81.8262L611.097 65.9758Z" fill="#759599" stroke="#759599" stroke-width="0.660434"/>
    <path d="M616.381 82.4865L609.446 89.7512L602.512 82.4865L609.446 75.5519L616.381 82.4865Z" fill="#759599" stroke="#759599" stroke-width="0.660434"/>
    <path d="M605.635 46.823L609.116 50.3037L612.597 46.823L609.116 43.3424L605.635 46.823Z" fill="#759599"/>
    <path d="M111.162 127.459L168.168 70.4526" stroke="#759599" stroke-width="2.32044"/>
    <path d="M111.162 70.4529L168.168 127.459" stroke="#759599" stroke-width="2.32044"/>
    <path d="M139.227 117.812L120.59 99.3946M120.59 99.3946L101.953 80.9773L83.5361 98.9561L101.953 117.812L120.59 99.3946ZM120.59 99.3946L139.227 79.6618" stroke="#759599" stroke-width="2.32044"/>
    <path d="M139.227 117.812L157.863 99.3946M157.863 99.3946L176.5 80.9773L194.917 98.9561L176.5 117.812L157.863 99.3946ZM157.863 99.3946L139.227 79.6618" stroke="#759599" stroke-width="2.32044"/>
    <path d="M139.227 42.8269L158.083 61.2443L139.665 79.8809L121.248 61.2443L139.227 42.8269Z" stroke="#759599" stroke-width="2.32044"/>
    <path d="M139.227 154.646L158.083 136.229L139.665 117.592L121.248 136.229L139.227 154.646Z" stroke="#759599" stroke-width="2.32044"/>
    <rect x="100.957" y="104.657" width="7.89316" height="7.89316" transform="rotate(-135 100.957 104.657)" fill="#759599"/>
    <rect x="178.135" y="104.657" width="7.89316" height="7.89316" transform="rotate(-135 178.135 104.657)" fill="#759599"/>
    <rect x="139.546" y="66.9448" width="7.89316" height="7.89316" transform="rotate(-135 139.546 66.9448)" fill="#759599"/>
    <rect x="139.546" y="141.492" width="7.89316" height="7.89316" transform="rotate(-135 139.546 141.492)" fill="#759599"/>
    <path d="M299.118 127.459L356.124 70.4526" stroke="#759599" stroke-width="2.32044"/>
    <path d="M299.118 70.4529L356.124 127.459" stroke="#759599" stroke-width="2.32044"/>
    <path d="M327.182 117.812L308.546 99.3946M308.546 99.3946L289.909 80.9773L271.492 98.9561L289.909 117.812L308.546 99.3946ZM308.546 99.3946L327.182 79.6618" stroke="#759599" stroke-width="2.32044"/>
    <path d="M327.182 117.812L345.819 99.3946M345.819 99.3946L364.456 80.9773L382.873 98.9561L364.456 117.812L345.819 99.3946ZM345.819 99.3946L327.182 79.6618" stroke="#759599" stroke-width="2.32044"/>
    <path d="M327.182 42.8269L346.038 61.2443L327.621 79.8809L309.203 61.2443L327.182 42.8269Z" stroke="#759599" stroke-width="2.32044"/>
    <path d="M327.182 154.646L346.038 136.229L327.621 117.592L309.203 136.229L327.182 154.646Z" stroke="#759599" stroke-width="2.32044"/>
    <rect x="288.913" y="104.657" width="7.89316" height="7.89316" transform="rotate(-135 288.913 104.657)" fill="#759599"/>
    <rect x="366.09" y="104.657" width="7.89316" height="7.89316" transform="rotate(-135 366.09 104.657)" fill="#759599"/>
    <rect x="327.501" y="66.9448" width="7.89316" height="7.89316" transform="rotate(-135 327.501 66.9448)" fill="#759599"/>
    <rect x="327.501" y="141.492" width="7.89316" height="7.89316" transform="rotate(-135 327.501 141.492)" fill="#759599"/>
    <path d="M489.394 127.459L546.4 70.4526" stroke="#759599" stroke-width="2.32044"/>
    <path d="M489.394 70.4529L546.4 127.459" stroke="#759599" stroke-width="2.32044"/>
    <path d="M517.459 117.812L498.822 99.3946M498.822 99.3946L480.185 80.9773L461.768 98.9561L480.185 117.812L498.822 99.3946ZM498.822 99.3946L517.459 79.6618" stroke="#759599" stroke-width="2.32044"/>
    <path d="M517.459 117.812L536.095 99.3946M536.095 99.3946L554.732 80.9773L573.149 98.9561L554.732 117.812L536.095 99.3946ZM536.095 99.3946L517.459 79.6618" stroke="#759599" stroke-width="2.32044"/>
    <path d="M517.459 42.8269L536.314 61.2443L517.897 79.8809L499.48 61.2443L517.459 42.8269Z" stroke="#759599" stroke-width="2.32044"/>
    <path d="M517.459 154.646L536.314 136.229L517.897 117.592L499.48 136.229L517.459 154.646Z" stroke="#759599" stroke-width="2.32044"/>
    <rect x="479.189" y="104.657" width="7.89316" height="7.89316" transform="rotate(-135 479.189 104.657)" fill="#759599"/>
    <rect x="556.367" y="104.657" width="7.89316" height="7.89316" transform="rotate(-135 556.367 104.657)" fill="#759599"/>
    <rect x="517.778" y="66.9448" width="7.89316" height="7.89316" transform="rotate(-135 517.778 66.9448)" fill="#759599"/>
    <rect x="517.778" y="141.492" width="7.89316" height="7.89316" transform="rotate(-135 517.778 141.492)" fill="#759599"/>
    <path d="M672.709 127.459L729.715 70.4526" stroke="#759599" stroke-width="2.32044"/>
    <path d="M672.709 70.4529L729.715 127.459" stroke="#759599" stroke-width="2.32044"/>
    <path d="M700.774 117.812L682.137 99.3946M682.137 99.3946L663.501 80.9773L645.083 98.9561L663.501 117.812L682.137 99.3946ZM682.137 99.3946L700.774 79.6618" stroke="#759599" stroke-width="2.32044"/>
    <path d="M700.774 117.812L719.41 99.3946M719.41 99.3946L738.047 80.9773L756.464 98.9561L738.047 117.812L719.41 99.3946ZM719.41 99.3946L700.774 79.6618" stroke="#759599" stroke-width="2.32044"/>
    <path d="M700.774 42.8269L719.63 61.2443L701.213 79.8809L682.795 61.2443L700.774 42.8269Z" stroke="#759599" stroke-width="2.32044"/>
    <path d="M700.774 154.646L719.63 136.229L701.213 117.592L682.795 136.229L700.774 154.646Z" stroke="#759599" stroke-width="2.32044"/>
    <rect x="662.504" y="104.657" width="7.89316" height="7.89316" transform="rotate(-135 662.504 104.657)" fill="#759599"/>
    <rect x="739.682" y="104.657" width="7.89316" height="7.89316" transform="rotate(-135 739.682 104.657)" fill="#759599"/>
    <rect x="701.093" y="66.9448" width="7.89316" height="7.89316" transform="rotate(-135 701.093 66.9448)" fill="#759599"/>
    <rect x="701.093" y="141.492" width="7.89316" height="7.89316" transform="rotate(-135 701.093 141.492)" fill="#759599"/>
</svg>
