<svg width="201" height="759" viewBox="0 0 201 759" fill="none" xmlns="http://www.w3.org/2000/svg">
    <path d="M46.9497 24.4956V31.2999L51.7127 36.0629L63.28 25.176V8.16522L46.9497 24.4956Z" fill="#759599"/>
    <path d="M44.2285 24.4956V31.2999L39.4655 36.0629L27.8982 25.176V8.16522L44.2285 24.4956Z" fill="#759599"/>
    <path d="M39.4658 38.1043L45.5897 31.9804L51.7136 38.1043L45.5897 44.2282L39.4658 38.1043Z" fill="#759599"/>
    <path d="M46.9497 5.44344V0L52.3932 5.44344H46.9497Z" fill="#759599"/>
    <path d="M46.9497 8.1652V13.6086L52.3932 8.1652H46.9497Z" fill="#759599"/>
    <path d="M44.2285 5.44344V0L38.7851 5.44344H44.2285Z" fill="#759599"/>
    <path d="M44.2285 8.1652V13.6086L38.7851 8.1652H44.2285Z" fill="#759599"/>
    <rect x="44.2285" y="5.44348" width="2.72172" height="2.72172" fill="#759599"/>
    <rect x="44.2285" y="12.9281" width="2.72172" height="10.8869" fill="#759599"/>
    <path d="M46.9497 66.0017V59.1974L51.7127 54.4344L63.28 65.3213V82.332L46.9497 66.0017Z" fill="#759599"/>
    <path d="M44.2285 66.0017V59.1974L39.4655 54.4344L27.8982 65.3213V82.332L44.2285 66.0017Z" fill="#759599"/>
    <path d="M39.4658 52.3931L45.5897 58.5169L51.7136 52.3931L45.5897 46.2692L39.4658 52.3931Z" fill="#759599"/>
    <path d="M46.9497 85.0537V90.4971L52.3932 85.0537H46.9497Z" fill="#759599"/>
    <path d="M46.9497 82.3322V76.8888L52.3932 82.3322H46.9497Z" fill="#759599"/>
    <path d="M44.2285 85.0537V90.4971L38.7851 85.0537H44.2285Z" fill="#759599"/>
    <path d="M44.2285 82.3322V76.8888L38.7851 82.3322H44.2285Z" fill="#759599"/>
    <rect width="2.72172" height="2.72172" transform="matrix(1 0 0 -1 44.2285 85.0536)" fill="#759599"/>
    <rect width="2.72172" height="10.8869" transform="matrix(1 0 0 -1 44.2285 77.569)" fill="#759599"/>
    <path d="M66.6814 44.2281H59.8771L55.1141 39.4651L66.001 27.8978H83.0117L66.6814 44.2281Z" fill="#759599"/>
    <path d="M66.6814 46.9499H59.8771L55.1141 51.7129L66.001 63.2802H83.0117L66.6814 46.9499Z" fill="#759599"/>
    <path d="M53.0728 51.7128L59.1966 45.589L53.0728 39.4651L46.9489 45.589L53.0728 51.7128Z" fill="#759599"/>
    <path d="M85.7338 44.2281H91.1772L85.7338 38.7846V44.2281Z" fill="#759599"/>
    <path d="M83.0118 44.2281H77.5684L83.0118 38.7846V44.2281Z" fill="#759599"/>
    <path d="M85.7338 46.9499H91.1772L85.7338 52.3933V46.9499Z" fill="#759599"/>
    <path d="M83.0118 46.9499H77.5684L83.0118 52.3933V46.9499Z" fill="#759599"/>
    <rect width="2.72172" height="2.72172" transform="matrix(0 -1 -1 0 85.7339 46.9499)" fill="#759599"/>
    <rect width="2.72172" height="10.8869" transform="matrix(0 -1 -1 0 78.249 46.9499)" fill="#759599"/>
    <path d="M24.4959 44.2281H31.3002L36.0632 39.4651L25.1763 27.8978H8.16553L24.4959 44.2281Z" fill="#759599"/>
    <path d="M24.4959 46.9499H31.3002L36.0632 51.7129L25.1763 63.2802H8.16553L24.4959 46.9499Z" fill="#759599"/>
    <path d="M38.104 51.7128L31.9801 45.589L38.104 39.4651L44.2279 45.589L38.104 51.7128Z" fill="#759599"/>
    <path d="M5.44344 44.2281H0L5.44344 38.7846V44.2281Z" fill="#759599"/>
    <path d="M8.16544 44.2281H13.6089L8.16544 38.7846V44.2281Z" fill="#759599"/>
    <path d="M5.44344 46.9499H0L5.44344 52.3933V46.9499Z" fill="#759599"/>
    <path d="M8.16544 46.9499H13.6089L8.16544 52.3933V46.9499Z" fill="#759599"/>
    <rect x="5.44336" y="46.9499" width="2.72172" height="2.72172" transform="rotate(-90 5.44336 46.9499)" fill="#759599"/>
    <rect x="12.9282" y="46.9499" width="2.72172" height="10.8869" transform="rotate(-90 12.9282 46.9499)" fill="#759599"/>
    <path d="M46.9492 402.727V409.532L51.7122 414.295L63.2796 403.408V386.397L46.9492 402.727Z" fill="#759599"/>
    <path d="M44.2275 402.727V409.532L39.4645 414.295L27.8972 403.408V386.397L44.2275 402.727Z" fill="#759599"/>
    <path d="M39.4644 416.336L45.5882 410.212L51.7121 416.336L45.5882 422.46L39.4644 416.336Z" fill="#759599"/>
    <path d="M46.9492 383.675V378.232L52.3927 383.675H46.9492Z" fill="#759599"/>
    <path d="M46.9492 386.397V391.84L52.3927 386.397H46.9492Z" fill="#759599"/>
    <path d="M44.2275 383.675V378.232L38.7841 383.675H44.2275Z" fill="#759599"/>
    <path d="M44.2275 386.397V391.84L38.7841 386.397H44.2275Z" fill="#759599"/>
    <rect x="44.2275" y="383.675" width="2.72172" height="2.72172" fill="#759599"/>
    <rect x="44.2275" y="391.16" width="2.72172" height="10.8869" fill="#759599"/>
    <path d="M46.9492 444.234V437.429L51.7122 432.666L63.2796 443.553V460.564L46.9492 444.234Z" fill="#759599"/>
    <path d="M44.2275 444.234V437.429L39.4645 432.666L27.8972 443.553V460.564L44.2275 444.234Z" fill="#759599"/>
    <path d="M39.4644 430.625L45.5882 436.749L51.7121 430.625L45.5882 424.501L39.4644 430.625Z" fill="#759599"/>
    <path d="M46.9492 463.286V468.729L52.3927 463.286H46.9492Z" fill="#759599"/>
    <path d="M46.9492 460.564V455.121L52.3927 460.564H46.9492Z" fill="#759599"/>
    <path d="M44.2275 463.286V468.729L38.7841 463.286H44.2275Z" fill="#759599"/>
    <path d="M44.2275 460.564V455.121L38.7841 460.564H44.2275Z" fill="#759599"/>
    <rect width="2.72172" height="2.72172" transform="matrix(1 0 0 -1 44.2275 463.285)" fill="#759599"/>
    <rect width="2.72172" height="10.8869" transform="matrix(1 0 0 -1 44.2275 455.801)" fill="#759599"/>
    <path d="M66.6814 422.46H59.8771L55.1141 417.697L66.001 406.129H83.0117L66.6814 422.46Z" fill="#759599"/>
    <path d="M66.6814 425.181H59.8771L55.1141 429.944L66.001 441.512H83.0117L66.6814 425.181Z" fill="#759599"/>
    <path d="M53.0732 429.944L59.1971 423.82L53.0732 417.697L46.9494 423.82L53.0732 429.944Z" fill="#759599"/>
    <path d="M85.7338 422.46H91.1772L85.7338 417.016V422.46Z" fill="#759599"/>
    <path d="M83.0118 422.46H77.5684L83.0118 417.016V422.46Z" fill="#759599"/>
    <path d="M85.7338 425.181H91.1772L85.7338 430.625V425.181Z" fill="#759599"/>
    <path d="M83.0118 425.181H77.5684L83.0118 430.625V425.181Z" fill="#759599"/>
    <rect width="2.72172" height="2.72172" transform="matrix(0 -1 -1 0 85.7339 425.181)" fill="#759599"/>
    <rect width="2.72172" height="10.8869" transform="matrix(0 -1 -1 0 78.249 425.181)" fill="#759599"/>
    <path d="M24.4959 422.46H31.3002L36.0632 417.697L25.1763 406.129H8.16553L24.4959 422.46Z" fill="#759599"/>
    <path d="M24.4959 425.181H31.3002L36.0632 429.944L25.1763 441.512H8.16553L24.4959 425.181Z" fill="#759599"/>
    <path d="M38.104 429.944L31.9801 423.821L38.104 417.697L44.2279 423.821L38.104 429.944Z" fill="#759599"/>
    <path d="M5.44344 422.46H0L5.44344 417.016V422.46Z" fill="#759599"/>
    <path d="M8.16544 422.46H13.6089L8.16544 417.016V422.46Z" fill="#759599"/>
    <path d="M5.44344 425.181H0L5.44344 430.625V425.181Z" fill="#759599"/>
    <path d="M8.16544 425.181H13.6089L8.16544 430.625V425.181Z" fill="#759599"/>
    <rect x="5.44336" y="425.181" width="2.72172" height="2.72172" transform="rotate(-90 5.44336 425.181)" fill="#759599"/>
    <rect x="12.9282" y="425.181" width="2.72172" height="10.8869" transform="rotate(-90 12.9282 425.181)" fill="#759599"/>
    <path d="M155.249 24.4956V31.2999L160.012 36.0629L171.579 25.176V8.16522L155.249 24.4956Z" fill="#759599"/>
    <path d="M152.527 24.4956V31.2999L147.764 36.0629L136.197 25.176V8.16522L152.527 24.4956Z" fill="#759599"/>
    <path d="M147.764 38.1043L153.888 31.9804L160.011 38.1043L153.888 44.2282L147.764 38.1043Z" fill="#759599"/>
    <path d="M155.249 5.44344V0L160.692 5.44344H155.249Z" fill="#759599"/>
    <path d="M155.249 8.1652V13.6086L160.692 8.1652H155.249Z" fill="#759599"/>
    <path d="M152.527 5.44344V0L147.083 5.44344H152.527Z" fill="#759599"/>
    <path d="M152.527 8.1652V13.6086L147.083 8.1652H152.527Z" fill="#759599"/>
    <rect x="152.527" y="5.44348" width="2.72172" height="2.72172" fill="#759599"/>
    <rect x="152.527" y="12.9281" width="2.72172" height="10.8869" fill="#759599"/>
    <path d="M155.249 66.0017V59.1974L160.012 54.4344L171.579 65.3212V82.332L155.249 66.0017Z" fill="#759599"/>
    <path d="M152.527 66.0017V59.1974L147.764 54.4344L136.197 65.3212V82.332L152.527 66.0017Z" fill="#759599"/>
    <path d="M147.764 52.3931L153.888 58.5169L160.011 52.3931L153.888 46.2692L147.764 52.3931Z" fill="#759599"/>
    <path d="M155.249 85.0537V90.4971L160.692 85.0537H155.249Z" fill="#759599"/>
    <path d="M155.249 82.3322V76.8888L160.692 82.3322H155.249Z" fill="#759599"/>
    <path d="M152.527 85.0537V90.4971L147.083 85.0537H152.527Z" fill="#759599"/>
    <path d="M152.527 82.3322V76.8888L147.083 82.3322H152.527Z" fill="#759599"/>
    <rect width="2.72172" height="2.72172" transform="matrix(1 0 0 -1 152.527 85.0536)" fill="#759599"/>
    <rect width="2.72172" height="10.8869" transform="matrix(1 0 0 -1 152.527 77.569)" fill="#759599"/>
    <path d="M174.98 44.2281H168.176L163.413 39.4651L174.3 27.8978H191.311L174.98 44.2281Z" fill="#759599"/>
    <path d="M174.98 46.9499H168.176L163.413 51.7129L174.3 63.2802H191.311L174.98 46.9499Z" fill="#759599"/>
    <path d="M161.372 51.7128L167.496 45.589L161.372 39.4651L155.248 45.589L161.372 51.7128Z" fill="#759599"/>
    <path d="M194.033 44.2281H199.476L194.033 38.7846V44.2281Z" fill="#759599"/>
    <path d="M191.31 44.2281H185.867L191.31 38.7846V44.2281Z" fill="#759599"/>
    <path d="M194.033 46.9499H199.476L194.033 52.3933V46.9499Z" fill="#759599"/>
    <path d="M191.31 46.9499H185.867L191.31 52.3933V46.9499Z" fill="#759599"/>
    <rect width="2.72172" height="2.72172" transform="matrix(0 -1 -1 0 194.032 46.9499)" fill="#759599"/>
    <rect width="2.72172" height="10.8869" transform="matrix(0 -1 -1 0 186.547 46.9499)" fill="#759599"/>
    <path d="M132.793 44.2281H139.598L144.361 39.4651L133.474 27.8978H116.463L132.793 44.2281Z" fill="#759599"/>
    <path d="M132.793 46.9499H139.598L144.361 51.7129L133.474 63.2802H116.463L132.793 46.9499Z" fill="#759599"/>
    <path d="M146.402 51.7128L140.278 45.589L146.402 39.4651L152.526 45.589L146.402 51.7128Z" fill="#759599"/>
    <path d="M113.741 44.2281H108.298L113.741 38.7846V44.2281Z" fill="#759599"/>
    <path d="M116.463 44.2281H121.906L116.463 38.7846V44.2281Z" fill="#759599"/>
    <path d="M113.741 46.9499H108.298L113.741 52.3933V46.9499Z" fill="#759599"/>
    <path d="M116.463 46.9499H121.906L116.463 52.3933V46.9499Z" fill="#759599"/>
    <rect x="113.742" y="46.9499" width="2.72172" height="2.72172" transform="rotate(-90 113.742 46.9499)" fill="#759599"/>
    <rect x="121.227" y="46.9499" width="2.72172" height="10.8869" transform="rotate(-90 121.227 46.9499)" fill="#759599"/>
    <path d="M155.88 402.727V409.532L160.643 414.295L172.21 403.408V386.397L155.88 402.727Z" fill="#759599"/>
    <path d="M153.159 402.727V409.532L148.396 414.295L136.828 403.408V386.397L153.159 402.727Z" fill="#759599"/>
    <path d="M148.396 416.336L154.519 410.212L160.643 416.336L154.519 422.46L148.396 416.336Z" fill="#759599"/>
    <path d="M155.88 383.675V378.232L161.323 383.675H155.88Z" fill="#759599"/>
    <path d="M155.88 386.397V391.84L161.323 386.397H155.88Z" fill="#759599"/>
    <path d="M153.159 383.675V378.232L147.715 383.675H153.159Z" fill="#759599"/>
    <path d="M153.159 386.397V391.84L147.715 386.397H153.159Z" fill="#759599"/>
    <rect x="153.159" y="383.675" width="2.72172" height="2.72172" fill="#759599"/>
    <rect x="153.159" y="391.16" width="2.72172" height="10.8869" fill="#759599"/>
    <path d="M155.88 444.234V437.429L160.643 432.666L172.21 443.553V460.564L155.88 444.234Z" fill="#759599"/>
    <path d="M153.159 444.234V437.429L148.396 432.666L136.828 443.553V460.564L153.159 444.234Z" fill="#759599"/>
    <path d="M148.396 430.625L154.519 436.749L160.643 430.625L154.519 424.501L148.396 430.625Z" fill="#759599"/>
    <path d="M155.88 463.286V468.729L161.323 463.286H155.88Z" fill="#759599"/>
    <path d="M155.88 460.564V455.121L161.323 460.564H155.88Z" fill="#759599"/>
    <path d="M153.159 463.286V468.729L147.715 463.286H153.159Z" fill="#759599"/>
    <path d="M153.159 460.564V455.121L147.715 460.564H153.159Z" fill="#759599"/>
    <rect width="2.72172" height="2.72172" transform="matrix(1 0 0 -1 153.159 463.285)" fill="#759599"/>
    <rect width="2.72172" height="10.8869" transform="matrix(1 0 0 -1 153.159 455.801)" fill="#759599"/>
    <path d="M175.613 422.46H168.808L164.045 417.697L174.932 406.129H191.943L175.613 422.46Z" fill="#759599"/>
    <path d="M175.613 425.182H168.808L164.045 429.945L174.932 441.512H191.943L175.613 425.182Z" fill="#759599"/>
    <path d="M162.004 429.945L168.128 423.821L162.004 417.697L155.881 423.821L162.004 429.945Z" fill="#759599"/>
    <path d="M194.665 422.46H200.108L194.665 417.016V422.46Z" fill="#759599"/>
    <path d="M191.943 422.46H186.5L191.943 417.016V422.46Z" fill="#759599"/>
    <path d="M194.665 425.182H200.108L194.665 430.625V425.182Z" fill="#759599"/>
    <path d="M191.943 425.182H186.5L191.943 430.625V425.182Z" fill="#759599"/>
    <rect width="2.72172" height="2.72172" transform="matrix(0 -1 -1 0 194.665 425.182)" fill="#759599"/>
    <rect width="2.72172" height="10.8869" transform="matrix(0 -1 -1 0 187.18 425.182)" fill="#759599"/>
    <path d="M133.427 422.46H140.231L144.994 417.697L134.107 406.129H117.096L133.427 422.46Z" fill="#759599"/>
    <path d="M133.427 425.182H140.231L144.994 429.945L134.107 441.512H117.096L133.427 425.182Z" fill="#759599"/>
    <path d="M147.036 429.945L140.912 423.821L147.036 417.697L153.16 423.821L147.036 429.945Z" fill="#759599"/>
    <path d="M114.375 422.46H108.931L114.375 417.016V422.46Z" fill="#759599"/>
    <path d="M117.096 422.46H122.54L117.096 417.016V422.46Z" fill="#759599"/>
    <path d="M114.375 425.182H108.931L114.375 430.625V425.182Z" fill="#759599"/>
    <path d="M117.096 425.182H122.54L117.096 430.625V425.182Z" fill="#759599"/>
    <rect x="114.375" y="425.182" width="2.72172" height="2.72172" transform="rotate(-90 114.375 425.182)" fill="#759599"/>
    <rect x="121.859" y="425.182" width="2.72172" height="10.8869" transform="rotate(-90 121.859 425.182)" fill="#759599"/>
    <path d="M45.2458 229.724L41.7651 233.205L45.2458 236.685L48.7265 233.205L45.2458 229.724Z" fill="#759599"/>
    <path d="M47.2271 214.052V229.242L62.417 213.392V198.202L47.2271 214.052Z" fill="#759599" stroke="#759599" stroke-width="0.660434"/>
    <path d="M43.2646 214.052V229.242L28.0747 213.392V198.202L43.2646 214.052Z" fill="#759599" stroke="#759599" stroke-width="0.660434"/>
    <path d="M37.981 197.541L44.9155 190.276L51.8501 197.541L44.9155 204.476L37.981 197.541Z" fill="#759599" stroke="#759599" stroke-width="0.660434"/>
    <path d="M47.2271 252.357V237.167L62.417 253.017V268.207L47.2271 252.357Z" fill="#759599" stroke="#759599" stroke-width="0.660434"/>
    <path d="M43.2646 252.357V237.167L28.0747 253.017V268.207L43.2646 252.357Z" fill="#759599" stroke="#759599" stroke-width="0.660434"/>
    <path d="M37.981 268.868L44.9155 276.133L51.8501 268.868L44.9155 261.933L37.981 268.868Z" fill="#759599" stroke="#759599" stroke-width="0.660434"/>
    <path d="M64.3986 231.223H49.2086L65.0591 216.033H80.249L64.3986 231.223Z" fill="#759599" stroke="#759599" stroke-width="0.660434"/>
    <path d="M64.3986 235.186H49.2086L65.0591 250.376H80.249L64.3986 235.186Z" fill="#759599" stroke="#759599" stroke-width="0.660434"/>
    <path d="M80.9091 240.47L88.1738 233.535L80.9091 226.6L73.9745 233.535L80.9091 240.47Z" fill="#759599" stroke="#759599" stroke-width="0.660434"/>
    <path d="M26.0931 231.223H41.2831L25.4326 216.033H10.2427L26.0931 231.223Z" fill="#759599" stroke="#759599" stroke-width="0.660434"/>
    <path d="M26.0931 235.186H41.2831L25.4326 250.376H10.2427L26.0931 235.186Z" fill="#759599" stroke="#759599" stroke-width="0.660434"/>
    <path d="M9.58166 240.47L2.31689 233.535L9.58166 226.6L16.5162 233.535L9.58166 240.47Z" fill="#759599" stroke="#759599" stroke-width="0.660434"/>
    <path d="M47.2271 589.963V605.153L62.417 589.303V574.113L47.2271 589.963Z" fill="#759599" stroke="#759599" stroke-width="0.660434"/>
    <path d="M43.2646 589.963V605.153L28.0747 589.303V574.113L43.2646 589.963Z" fill="#759599" stroke="#759599" stroke-width="0.660434"/>
    <path d="M37.981 573.452L44.9155 566.188L51.8501 573.452L44.9155 580.387L37.981 573.452Z" fill="#759599" stroke="#759599" stroke-width="0.660434"/>
    <path d="M47.2271 628.269V613.079L62.417 628.929V644.119L47.2271 628.269Z" fill="#759599" stroke="#759599" stroke-width="0.660434"/>
    <path d="M43.2646 628.269V613.079L28.0747 628.929V644.119L43.2646 628.269Z" fill="#759599" stroke="#759599" stroke-width="0.660434"/>
    <path d="M37.981 644.779L44.9155 652.044L51.8501 644.779L44.9155 637.845L37.981 644.779Z" fill="#759599" stroke="#759599" stroke-width="0.660434"/>
    <path d="M64.3986 607.134H49.2086L65.0591 591.944H80.249L64.3986 607.134Z" fill="#759599" stroke="#759599" stroke-width="0.660434"/>
    <path d="M64.3986 611.097H49.2086L65.0591 626.287H80.249L64.3986 611.097Z" fill="#759599" stroke="#759599" stroke-width="0.660434"/>
    <path d="M80.9091 616.381L88.1738 609.446L80.9091 602.512L73.9745 609.446L80.9091 616.381Z" fill="#759599" stroke="#759599" stroke-width="0.660434"/>
    <path d="M26.0931 607.134H41.2831L25.4326 591.944H10.2427L26.0931 607.134Z" fill="#759599" stroke="#759599" stroke-width="0.660434"/>
    <path d="M26.0931 611.097H41.2831L25.4326 626.287H10.2427L26.0931 611.097Z" fill="#759599" stroke="#759599" stroke-width="0.660434"/>
    <path d="M9.58166 616.381L2.31689 609.446L9.58166 602.512L16.5162 609.446L9.58166 616.381Z" fill="#759599" stroke="#759599" stroke-width="0.660434"/>
    <path d="M156.158 214.052V229.242L171.348 213.392V198.202L156.158 214.052Z" fill="#759599" stroke="#759599" stroke-width="0.660434"/>
    <path d="M152.195 214.052V229.242L137.005 213.392V198.202L152.195 214.052Z" fill="#759599" stroke="#759599" stroke-width="0.660434"/>
    <path d="M146.912 197.541L153.847 190.276L160.781 197.541L153.847 204.476L146.912 197.541Z" fill="#759599" stroke="#759599" stroke-width="0.660434"/>
    <path d="M156.158 252.357V237.167L171.348 253.017V268.207L156.158 252.357Z" fill="#759599" stroke="#759599" stroke-width="0.660434"/>
    <path d="M152.195 252.357V237.167L137.005 253.017V268.207L152.195 252.357Z" fill="#759599" stroke="#759599" stroke-width="0.660434"/>
    <path d="M146.912 268.868L153.847 276.133L160.781 268.868L153.847 261.933L146.912 268.868Z" fill="#759599" stroke="#759599" stroke-width="0.660434"/>
    <path d="M173.329 231.223H158.139L173.99 216.033H189.18L173.329 231.223Z" fill="#759599" stroke="#759599" stroke-width="0.660434"/>
    <path d="M173.329 235.186H158.139L173.99 250.376H189.18L173.329 235.186Z" fill="#759599" stroke="#759599" stroke-width="0.660434"/>
    <path d="M189.84 240.47L197.104 233.535L189.84 226.6L182.905 233.535L189.84 240.47Z" fill="#759599" stroke="#759599" stroke-width="0.660434"/>
    <path d="M135.024 231.223H150.214L134.363 216.033H119.173L135.024 231.223Z" fill="#759599" stroke="#759599" stroke-width="0.660434"/>
    <path d="M135.024 235.186H150.214L134.363 250.376H119.173L135.024 235.186Z" fill="#759599" stroke="#759599" stroke-width="0.660434"/>
    <path d="M118.513 240.47L111.248 233.535L118.513 226.6L125.447 233.535L118.513 240.47Z" fill="#759599" stroke="#759599" stroke-width="0.660434"/>
    <path d="M154.177 229.724L150.696 233.205L154.177 236.685L157.658 233.205L154.177 229.724Z" fill="#759599"/>
    <path d="M156.158 589.963V605.153L171.348 589.303V574.113L156.158 589.963Z" fill="#759599" stroke="#759599" stroke-width="0.660434"/>
    <path d="M152.195 589.963V605.153L137.005 589.303V574.113L152.195 589.963Z" fill="#759599" stroke="#759599" stroke-width="0.660434"/>
    <path d="M146.912 573.452L153.847 566.188L160.781 573.452L153.847 580.387L146.912 573.452Z" fill="#759599" stroke="#759599" stroke-width="0.660434"/>
    <path d="M156.158 628.269V613.079L171.348 628.929V644.119L156.158 628.269Z" fill="#759599" stroke="#759599" stroke-width="0.660434"/>
    <path d="M152.195 628.269V613.079L137.005 628.929V644.119L152.195 628.269Z" fill="#759599" stroke="#759599" stroke-width="0.660434"/>
    <path d="M146.912 644.779L153.847 652.044L160.781 644.779L153.847 637.845L146.912 644.779Z" fill="#759599" stroke="#759599" stroke-width="0.660434"/>
    <path d="M173.329 607.134H158.139L173.99 591.944H189.18L173.329 607.134Z" fill="#759599" stroke="#759599" stroke-width="0.660434"/>
    <path d="M173.329 611.097H158.139L173.99 626.287H189.18L173.329 611.097Z" fill="#759599" stroke="#759599" stroke-width="0.660434"/>
    <path d="M189.84 616.381L197.104 609.446L189.84 602.512L182.905 609.446L189.84 616.381Z" fill="#759599" stroke="#759599" stroke-width="0.660434"/>
    <path d="M135.024 607.134H150.214L134.363 591.944H119.173L135.024 607.134Z" fill="#759599" stroke="#759599" stroke-width="0.660434"/>
    <path d="M135.024 611.097H150.214L134.363 626.287H119.173L135.024 611.097Z" fill="#759599" stroke="#759599" stroke-width="0.660434"/>
    <path d="M118.513 616.381L111.248 609.446L118.513 602.512L125.447 609.446L118.513 616.381Z" fill="#759599" stroke="#759599" stroke-width="0.660434"/>
    <path d="M154.177 605.635L150.696 609.116L154.177 612.597L157.658 609.116L154.177 605.635Z" fill="#759599"/>
    <path d="M73.541 111.162L130.547 168.168" stroke="#759599" stroke-width="2.32044"/>
    <path d="M130.547 111.162L73.5407 168.168" stroke="#759599" stroke-width="2.32044"/>
    <path d="M83.188 139.226L101.605 120.59M101.605 120.59L120.023 101.953L102.044 83.5359L83.188 101.953L101.605 120.59ZM101.605 120.59L121.338 139.226" stroke="#759599" stroke-width="2.32044"/>
    <path d="M83.188 139.226L101.605 157.863M101.605 157.863L120.023 176.5L102.044 194.917L83.188 176.5L101.605 157.863ZM101.605 157.863L121.338 139.226" stroke="#759599" stroke-width="2.32044"/>
    <path d="M158.173 139.227L139.756 158.082L121.119 139.665L139.756 121.248L158.173 139.227Z" stroke="#759599" stroke-width="2.32044"/>
    <path d="M46.3535 139.227L64.7709 158.082L83.4075 139.665L64.7709 121.248L46.3535 139.227Z" stroke="#759599" stroke-width="2.32044"/>
    <rect x="96.3433" y="100.957" width="7.89316" height="7.89316" transform="rotate(-45 96.3433 100.957)" fill="#759599"/>
    <rect x="96.3433" y="178.134" width="7.89316" height="7.89316" transform="rotate(-45 96.3433 178.134)" fill="#759599"/>
    <rect x="134.055" y="139.546" width="7.89316" height="7.89316" transform="rotate(-45 134.055 139.546)" fill="#759599"/>
    <rect x="59.5083" y="139.546" width="7.89316" height="7.89316" transform="rotate(-45 59.5083 139.546)" fill="#759599"/>
    <path d="M73.541 299.118L130.547 356.124" stroke="#759599" stroke-width="2.32044"/>
    <path d="M130.547 299.118L73.5407 356.124" stroke="#759599" stroke-width="2.32044"/>
    <path d="M83.188 327.182L101.605 308.546M101.605 308.546L120.023 289.909L102.044 271.492L83.188 289.909L101.605 308.546ZM101.605 308.546L121.338 327.182" stroke="#759599" stroke-width="2.32044"/>
    <path d="M83.188 327.182L101.605 345.819M101.605 345.819L120.023 364.456L102.044 382.873L83.188 364.456L101.605 345.819ZM101.605 345.819L121.338 327.182" stroke="#759599" stroke-width="2.32044"/>
    <path d="M158.173 327.182L139.756 346.038L121.119 327.621L139.756 309.204L158.173 327.182Z" stroke="#759599" stroke-width="2.32044"/>
    <path d="M46.3535 327.182L64.7709 346.038L83.4075 327.621L64.7709 309.204L46.3535 327.182Z" stroke="#759599" stroke-width="2.32044"/>
    <rect x="96.3433" y="288.913" width="7.89316" height="7.89316" transform="rotate(-45 96.3433 288.913)" fill="#759599"/>
    <rect x="96.3433" y="366.09" width="7.89316" height="7.89316" transform="rotate(-45 96.3433 366.09)" fill="#759599"/>
    <rect x="134.055" y="327.502" width="7.89316" height="7.89316" transform="rotate(-45 134.055 327.502)" fill="#759599"/>
    <rect x="59.5083" y="327.502" width="7.89316" height="7.89316" transform="rotate(-45 59.5083 327.502)" fill="#759599"/>
    <path d="M73.541 489.394L130.547 546.4" stroke="#759599" stroke-width="2.32044"/>
    <path d="M130.547 489.394L73.5407 546.4" stroke="#759599" stroke-width="2.32044"/>
    <path d="M83.188 517.459L101.605 498.822M101.605 498.822L120.023 480.186L102.044 461.768L83.188 480.186L101.605 498.822ZM101.605 498.822L121.338 517.459" stroke="#759599" stroke-width="2.32044"/>
    <path d="M83.188 517.459L101.605 536.095M101.605 536.095L120.023 554.732L102.044 573.149L83.188 554.732L101.605 536.095ZM101.605 536.095L121.338 517.459" stroke="#759599" stroke-width="2.32044"/>
    <path d="M158.173 517.459L139.756 536.315L121.119 517.897L139.756 499.48L158.173 517.459Z" stroke="#759599" stroke-width="2.32044"/>
    <path d="M46.3535 517.459L64.7709 536.315L83.4075 517.897L64.7709 499.48L46.3535 517.459Z" stroke="#759599" stroke-width="2.32044"/>
    <rect x="96.3433" y="479.189" width="7.89316" height="7.89316" transform="rotate(-45 96.3433 479.189)" fill="#759599"/>
    <rect x="96.3433" y="556.367" width="7.89316" height="7.89316" transform="rotate(-45 96.3433 556.367)" fill="#759599"/>
    <rect x="134.055" y="517.778" width="7.89316" height="7.89316" transform="rotate(-45 134.055 517.778)" fill="#759599"/>
    <rect x="59.5083" y="517.778" width="7.89316" height="7.89316" transform="rotate(-45 59.5083 517.778)" fill="#759599"/>
    <path d="M73.541 672.709L130.547 729.715" stroke="#759599" stroke-width="2.32044"/>
    <path d="M130.547 672.709L73.5407 729.715" stroke="#759599" stroke-width="2.32044"/>
    <path d="M83.188 700.774L101.605 682.137M101.605 682.137L120.023 663.5L102.044 645.083L83.188 663.5L101.605 682.137ZM101.605 682.137L121.338 700.774" stroke="#759599" stroke-width="2.32044"/>
    <path d="M83.188 700.774L101.605 719.41M101.605 719.41L120.023 738.047L102.044 756.464L83.188 738.047L101.605 719.41ZM101.605 719.41L121.338 700.774" stroke="#759599" stroke-width="2.32044"/>
    <path d="M158.173 700.774L139.756 719.63L121.119 701.212L139.756 682.795L158.173 700.774Z" stroke="#759599" stroke-width="2.32044"/>
    <path d="M46.3535 700.774L64.7709 719.63L83.4075 701.212L64.7709 682.795L46.3535 700.774Z" stroke="#759599" stroke-width="2.32044"/>
    <rect x="96.3433" y="662.504" width="7.89316" height="7.89316" transform="rotate(-45 96.3433 662.504)" fill="#759599"/>
    <rect x="96.3433" y="739.682" width="7.89316" height="7.89316" transform="rotate(-45 96.3433 739.682)" fill="#759599"/>
    <rect x="134.055" y="701.093" width="7.89316" height="7.89316" transform="rotate(-45 134.055 701.093)" fill="#759599"/>
    <rect x="59.5083" y="701.093" width="7.89316" height="7.89316" transform="rotate(-45 59.5083 701.093)" fill="#759599"/>
</svg>
