<svg width="371" height="371" viewBox="0 0 371 371" fill="none" xmlns="http://www.w3.org/2000/svg">
    <path fill-rule="evenodd" clip-rule="evenodd" d="M194.009 0H176.991V68.0735H153.165V54.4587H136.146V71.4771H149.761V81.6879H136.146V98.7062H153.165V85.0919H180.394V71.4771H190.605V85.0919H190.606H221.238H221.238V102.11H238.256V85.0916H221.239V71.4771H234.854V54.4587H217.835V68.0735H194.009V0ZM85.092 3.4035H102.11V20.4218H85.092V3.4035ZM102.11 20.4222H119.128V37.4405H102.11V20.4222ZM136.148 37.4403H119.13V54.4586H136.148V37.4403ZM119.13 98.7064H136.148V115.725H119.13V98.7064ZM119.128 115.725H102.11V132.743H119.128V115.725ZM85.092 132.743H102.11V149.762H85.092V132.743ZM85.0915 149.761H71.4767V136.147H54.4583V153.165H68.0731V176.991H0V194.009H68.0731V217.835H54.4583V234.854H71.4767V221.239H81.6887V234.854H98.706V251.872H115.724V234.853H98.707V217.835H85.0915V190.606H71.4771V180.395H85.0915V180.394V149.762V149.761ZM285.908 3.4035H268.89V20.4218H285.908V3.4035ZM251.871 20.4222H268.889V37.4405H251.871V20.4222ZM251.87 37.4403H234.852V54.4586H251.87V37.4403ZM176.991 371H194.009V302.926H217.836V316.541H234.855V299.523H221.239V289.312H234.855V272.294H217.836V285.908H190.606V299.523H180.395V285.908H149.762L149.762 285.908V268.89H132.744V285.909H149.761V299.523H136.146V316.541H153.165V302.926H176.991V371ZM285.909 367.596H268.89V350.578H285.909V367.596ZM268.89 350.578H251.872V333.559H268.89V350.578ZM234.853 333.56H251.871V316.541H234.853V333.56ZM251.871 272.294H234.853V255.275H251.871V272.294ZM251.872 255.275H268.89V238.257H251.872V255.275ZM285.909 238.257H268.89V221.238H285.909V190.606L299.523 190.605V180.394H285.909V153.165H272.293V136.147H255.276V119.129H272.294V136.147H289.311V149.761H299.523V136.147H316.542V153.165H302.927V176.991H371V194.009H302.927V217.835H316.542V234.853H299.523V221.239H285.909V238.257ZM85.092 367.596H102.11V350.578H85.092V367.596ZM119.129 350.578H102.111V333.559H119.129V350.578ZM119.13 333.56H136.148V316.541H119.13V333.56ZM3.40409 268.89V285.909H20.4224V268.89H37.4397V251.872H20.4214V268.89H3.40409ZM37.4395 251.872V234.853H54.4578V251.872H37.4395ZM115.725 268.89V251.872H132.743V268.89H115.725ZM3.40409 102.11V85.092H20.4224V102.11H37.4397V119.128H20.4214V102.11H3.40409ZM37.4395 136.147V119.129H54.4578V136.147H37.4395ZM367.596 85.0916V102.11H350.579V119.128H333.56V102.11H350.578V85.0916H367.596ZM333.561 136.147V119.129H316.542V136.147H333.561ZM255.275 119.128V102.11H238.257V119.128H255.275ZM367.596 285.908V268.89H350.579V251.872H333.56V268.89H350.578V285.908H367.596ZM333.561 251.871V234.853H316.542V251.871H333.561Z" fill="#E33B0E"/>
</svg>
