<svg width="263" height="545" viewBox="0 0 263 545" fill="none" xmlns="http://www.w3.org/2000/svg">
    <path d="M114.653 383.82V400.436L126.285 412.068L154.533 385.481V343.94L114.653 383.82Z" fill="#E33B0E"/>
    <path d="M108.006 383.82V400.436L96.3743 412.068L68.1262 385.481V343.94L108.006 383.82Z" fill="#E33B0E"/>
    <path d="M96.374 417.053L111.329 402.098L126.284 417.053L111.329 432.008L96.374 417.053Z" fill="#E33B0E"/>
    <path d="M114.653 337.293V324L127.947 337.293H114.653Z" fill="#E33B0E"/>
    <path d="M114.653 343.94V357.233L127.947 343.94H114.653Z" fill="#E33B0E"/>
    <path d="M108.006 337.293V324L94.7126 337.293H108.006Z" fill="#E33B0E"/>
    <path d="M108.006 343.94V357.233L94.7126 343.94H108.006Z" fill="#E33B0E"/>
    <rect x="108.006" y="337.293" width="6.64662" height="6.64662" fill="#E33B0E"/>
    <rect x="108.006" y="355.571" width="6.64662" height="26.5865" fill="#E33B0E"/>
    <path d="M114.653 485.18V468.564L126.285 456.932L154.533 483.519V525.06L114.653 485.18Z" fill="#E33B0E"/>
    <path d="M108.006 485.18V468.564L96.3743 456.932L68.1262 483.519V525.06L108.006 485.18Z" fill="#E33B0E"/>
    <path d="M96.374 451.947L111.329 466.902L126.284 451.947L111.329 436.992L96.374 451.947Z" fill="#E33B0E"/>
    <path d="M114.653 531.707V545L127.947 531.707H114.653Z" fill="#E33B0E"/>
    <path d="M114.653 525.06V511.767L127.947 525.06H114.653Z" fill="#E33B0E"/>
    <path d="M108.006 531.707V545L94.7126 531.707H108.006Z" fill="#E33B0E"/>
    <path d="M108.006 525.06V511.767L94.7126 525.06H108.006Z" fill="#E33B0E"/>
    <rect width="6.64662" height="6.64662" transform="matrix(1 0 0 -1 108.006 531.707)" fill="#E33B0E"/>
    <rect width="6.64662" height="26.5865" transform="matrix(1 0 0 -1 108.006 513.429)" fill="#E33B0E"/>
    <path d="M162.843 432.007H146.226L134.595 420.376L161.181 392.128H202.723L162.843 432.007Z" fill="#E33B0E"/>
    <path d="M162.843 438.654H146.226L134.595 450.286L161.181 478.534H202.723L162.843 438.654Z" fill="#E33B0E"/>
    <path d="M129.61 450.286L144.565 435.331L129.61 420.376L114.655 435.331L129.61 450.286Z" fill="#E33B0E"/>
    <path d="M209.369 432.007H222.662L209.369 418.714V432.007Z" fill="#E33B0E"/>
    <path d="M202.722 432.007H189.429L202.722 418.714V432.007Z" fill="#E33B0E"/>
    <path d="M209.369 438.654H222.662L209.369 451.947V438.654Z" fill="#E33B0E"/>
    <path d="M202.722 438.654H189.429L202.722 451.947V438.654Z" fill="#E33B0E"/>
    <rect width="6.64662" height="6.64662" transform="matrix(0 -1 -1 0 209.368 438.654)" fill="#E33B0E"/>
    <rect width="6.64662" height="26.5865" transform="matrix(0 -1 -1 0 191.092 438.654)" fill="#E33B0E"/>
    <path d="M59.8192 432.007H76.4357L88.0673 420.376L61.4808 392.128H19.9395L59.8192 432.007Z" fill="#E33B0E"/>
    <path d="M59.8192 438.654H76.4357L88.0673 450.286L61.4808 478.534H19.9395L59.8192 438.654Z" fill="#E33B0E"/>
    <path d="M93.0518 450.286L78.0969 435.331L93.0518 420.376L108.007 435.331L93.0518 450.286Z" fill="#E33B0E"/>
    <path d="M13.2932 432.007H0L13.2932 418.714V432.007Z" fill="#E33B0E"/>
    <path d="M19.9402 432.007H33.2334L19.9402 418.714V432.007Z" fill="#E33B0E"/>
    <path d="M13.2932 438.654H0L13.2932 451.947V438.654Z" fill="#E33B0E"/>
    <path d="M19.9402 438.654H33.2334L19.9402 451.947V438.654Z" fill="#E33B0E"/>
    <rect x="13.2939" y="438.654" width="6.64662" height="6.64662" transform="rotate(-90 13.2939 438.654)" fill="#E33B0E"/>
    <rect x="31.5703" y="438.654" width="6.64662" height="26.5865" transform="rotate(-90 31.5703 438.654)" fill="#E33B0E"/>
    <path fill-rule="evenodd" clip-rule="evenodd" d="M220.676 15.5406L210.017 4.23534L214.509 3.05176e-05L227.243 13.5052L229.317 15.7052L227.16 17.8245L215.97 28.8216L207.001 37.6361L213.928 44.5624L214 44.6349L223.201 35.4342L225.403 33.2323L227.585 35.4532L236.454 44.4776L243.747 37.543L234.565 28.2054L238.967 23.8767L250.35 35.4526L252.551 37.6909L250.276 39.854L240.782 48.8816L247.46 55.6767L258.765 45.0175L263 49.5095L249.495 62.243L247.295 64.3172L245.176 62.1607L234.179 50.9707L225.364 42.0015L218.559 48.8072L227.951 58.1999L230.153 60.4017L227.932 62.5843L218.908 71.4531L225.843 78.7465L235.18 69.5645L239.509 73.9666L227.933 85.3496L225.695 87.5506L223.532 85.2756L214.504 75.7811L207.709 82.4591L218.368 93.7643L213.876 97.9996L201.143 84.4945L199.068 82.2945L201.225 80.1751L212.415 69.1781L221.384 60.3636L214.386 53.3655L204.8 62.9516L202.598 65.1534L200.415 62.9325L191.547 53.9081L184.253 60.8428L193.435 70.1804L189.033 74.5091L177.65 62.9332L175.449 60.6948L177.724 58.5317L187.219 49.5042L180.541 42.709L169.235 53.3683L165 48.8763L178.505 36.1428L180.705 34.0686L182.825 36.2251L193.822 47.4151L202.636 56.3842L209.827 49.1931L209.562 48.9279L200.434 39.7998L198.232 37.598L200.453 35.4154L209.477 26.5466L202.543 19.2532L193.205 28.4351L188.876 24.0331L200.452 12.6501L202.691 10.4491L204.854 12.7241L213.881 22.2186L220.676 15.5406Z" fill="#E33B0E"/>
</svg>
