<svg width="68" height="325" viewBox="0 0 68 325" fill="none" xmlns="http://www.w3.org/2000/svg">
    <path d="M31.6205 34.5001L34.4993 31.6213L37.3781 34.5001L34.4993 37.3789L31.6205 34.5001Z" stroke="#E33B0E" stroke-width="1.03077"/>
    <path d="M36.0449 19.5539V31.4078L47.8988 19.0385V7.18469L36.0449 19.5539Z" fill="#E33B0E" stroke="#E33B0E" stroke-width="0.515385"/>
    <path d="M32.9531 19.5539V31.4078L21.0993 19.0385V7.18469L32.9531 19.5539Z" fill="#E33B0E" stroke="#E33B0E" stroke-width="0.515385"/>
    <path d="M28.8311 6.66923L34.2426 1L39.6541 6.66923L34.2426 12.0808L28.8311 6.66923Z" fill="#E33B0E" stroke="#E33B0E" stroke-width="0.515385"/>
    <path d="M36.0449 49.4461V37.5923L47.8988 49.9615V61.8153L36.0449 49.4461Z" fill="#E33B0E" stroke="#E33B0E" stroke-width="0.515385"/>
    <path d="M32.9531 49.4461V37.5923L21.0993 49.9615V61.8153L32.9531 49.4461Z" fill="#E33B0E" stroke="#E33B0E" stroke-width="0.515385"/>
    <path d="M28.8311 62.3308L34.2426 68L39.6541 62.3308L34.2426 56.9192L28.8311 62.3308Z" fill="#E33B0E" stroke="#E33B0E" stroke-width="0.515385"/>
    <path d="M49.4472 32.9539H37.5933L49.9626 21.1001H61.8164L49.4472 32.9539Z" fill="#E33B0E" stroke="#E33B0E" stroke-width="0.515385"/>
    <path d="M49.4472 36.0463H37.5933L49.9626 47.9001H61.8164L49.4472 36.0463Z" fill="#E33B0E" stroke="#E33B0E" stroke-width="0.515385"/>
    <path d="M62.3308 40.1694L68 34.7579L62.3308 29.3463L56.9192 34.7579L62.3308 40.1694Z" fill="#E33B0E" stroke="#E33B0E" stroke-width="0.515385"/>
    <path d="M19.5528 32.9539H31.4067L19.0374 21.1001H7.18359L19.5528 32.9539Z" fill="#E33B0E" stroke="#E33B0E" stroke-width="0.515385"/>
    <path d="M19.5528 36.0463H31.4067L19.0374 47.9001H7.18359L19.5528 36.0463Z" fill="#E33B0E" stroke="#E33B0E" stroke-width="0.515385"/>
    <path d="M6.66923 40.1694L1 34.7579L6.66923 29.3463L12.0808 34.7579L6.66923 40.1694Z" fill="#E33B0E" stroke="#E33B0E" stroke-width="0.515385"/>
    <path d="M37.8037 234.268L98.1974 294.661" stroke="#E33B0E" stroke-width="1.85827"/>
    <path d="M98.1963 234.268L37.8026 294.661" stroke="#E33B0E" stroke-width="1.85827"/>
    <path d="M48.0234 264L67.5352 244.256M67.5352 244.256L87.0471 224.512L67.9998 205L48.0234 224.512L67.5352 244.256ZM67.5352 244.256L88.4408 264" stroke="#E33B0E" stroke-width="1.85827"/>
    <path d="M48.0234 264L67.5352 283.744M67.5352 283.744L87.0471 303.488L67.9998 323L48.0234 303.488L67.5352 283.744ZM67.5352 283.744L88.4408 264" stroke="#E33B0E" stroke-width="1.85827"/>
    <path d="M9 264L28.5118 283.976L48.2559 264.464L28.5118 244.953L9 264Z" stroke="#E33B0E" stroke-width="1.85827"/>
    <rect x="61.9609" y="223.456" width="8.36221" height="8.36221" transform="rotate(-45 61.9609 223.456)" fill="#E33B0E"/>
    <rect x="61.9609" y="305.22" width="8.36221" height="8.36221" transform="rotate(-45 61.9609 305.22)" fill="#E33B0E"/>
    <rect x="22.9375" y="264.338" width="8.36221" height="8.36221" transform="rotate(-45 22.9375 264.338)" fill="#E33B0E"/>
</svg>
