<svg width="84" height="573" viewBox="0 0 84 573" fill="none" xmlns="http://www.w3.org/2000/svg">
    <path fill-rule="evenodd" clip-rule="evenodd" d="M20.9512 9.1974L14.6427 2.50658L17.3012 -1.7643e-05L24.8373 7.99281L26.0649 9.29482L24.7886 10.5491L18.166 17.0576L12.8578 22.2743L16.9571 26.3736L16.9572 26.3735L16.9999 26.4163L22.4451 20.9711L23.7482 19.668L25.0399 20.9824L30.2888 26.3233L34.6052 22.2191L29.1711 16.6929L31.7764 14.131L38.5132 20.982L39.8158 22.3067L38.4694 23.5869L32.8502 28.9297L36.8025 32.9513L43.4933 26.6428L45.9999 29.3013L38.0071 36.8374L36.7051 38.0651L35.4508 36.7887L28.9423 30.1661L23.7256 24.8579L19.6979 28.8856L25.2569 34.4446L26.56 35.7477L25.2456 37.0395L19.9046 42.2883L24.0088 46.6048L29.5351 41.1706L32.097 43.7759L25.246 50.5127L23.9212 51.8154L22.641 50.469L17.2982 44.8498L13.2766 48.8021L19.5851 55.4929L16.9266 57.9995L9.39051 50.0067L8.1629 48.7046L9.43921 47.4503L16.0618 40.9419L21.3701 35.7252L17.2283 31.5835L11.5549 37.2569L10.2518 38.56L8.96009 37.2456L3.71123 31.9046L-0.605232 36.0088L4.82894 41.5351L2.22365 44.097L-4.51316 37.246L-5.8158 35.9212L-4.46939 34.641L1.14977 29.2982L-2.8025 25.2766L-9.49331 31.5851L-11.9999 28.9266L-4.00708 21.3905L-2.70507 20.1629L-1.45076 21.4392L5.05768 28.0618L10.2744 33.3701L14.5303 29.1142L8.97099 23.5548L7.66787 22.2517L8.98227 20.96L14.3232 15.7111L10.219 11.3947L4.69276 16.8288L2.13089 14.2235L8.98189 7.48673L10.3066 6.18409L11.5868 7.53051L16.9296 13.1497L20.9512 9.1974Z" fill="#E33B0E"/>
    <path d="M18.999 476V486L25.999 493L42.999 477V452L18.999 476Z" fill="#E33B0E"/>
    <path d="M14.999 476V486L7.99902 493L-9.00098 477V452L14.999 476Z" fill="#E33B0E"/>
    <path d="M7.99902 496L16.999 487L25.999 496L16.999 505L7.99902 496Z" fill="#E33B0E"/>
    <path d="M18.999 448V440L26.999 448H18.999Z" fill="#E33B0E"/>
    <path d="M18.999 452V460L26.999 452H18.999Z" fill="#E33B0E"/>
    <path d="M14.999 448V440L6.99902 448H14.999Z" fill="#E33B0E"/>
    <path d="M14.999 452V460L6.99902 452H14.999Z" fill="#E33B0E"/>
    <rect x="14.999" y="448" width="4" height="4" fill="#E33B0E"/>
    <rect x="14.999" y="459" width="4" height="16" fill="#E33B0E"/>
    <path d="M18.999 537V527L25.999 520L42.999 536V561L18.999 537Z" fill="#E33B0E"/>
    <path d="M14.999 537V527L7.99902 520L-9.00098 536V561L14.999 537Z" fill="#E33B0E"/>
    <path d="M7.99902 517L16.999 526L25.999 517L16.999 508L7.99902 517Z" fill="#E33B0E"/>
    <path d="M18.999 565V573L26.999 565H18.999Z" fill="#E33B0E"/>
    <path d="M18.999 561V553L26.999 561H18.999Z" fill="#E33B0E"/>
    <path d="M14.999 565V573L6.99902 565H14.999Z" fill="#E33B0E"/>
    <path d="M14.999 561V553L6.99902 561H14.999Z" fill="#E33B0E"/>
    <rect width="4" height="4" transform="matrix(1 0 0 -1 14.999 565)" fill="#E33B0E"/>
    <rect width="4" height="16" transform="matrix(1 0 0 -1 14.999 554)" fill="#E33B0E"/>
    <path d="M48 505H38L31 498L47 481H72L48 505Z" fill="#E33B0E"/>
    <path d="M48 509H38L31 516L47 533H72L48 509Z" fill="#E33B0E"/>
    <path d="M28.001 516L37.001 507L28.001 498L19.001 507L28.001 516Z" fill="#E33B0E"/>
    <path d="M76 505H84L76 497V505Z" fill="#E33B0E"/>
    <path d="M71.999 505H63.999L71.999 497V505Z" fill="#E33B0E"/>
    <path d="M76 509H84L76 517V509Z" fill="#E33B0E"/>
    <path d="M71.999 509H63.999L71.999 517V509Z" fill="#E33B0E"/>
    <rect width="4" height="4" transform="matrix(0 -1 -1 0 75.999 509)" fill="#E33B0E"/>
    <rect width="4" height="16" transform="matrix(0 -1 -1 0 65 509)" fill="#E33B0E"/>
    <path d="M-14 505H-3.99999L3.00001 498L-13 481H-38L-14 505Z" fill="#E33B0E"/>
    <path d="M-14 509H-3.99999L3.00001 516L-13 533H-38L-14 509Z" fill="#E33B0E"/>
    <path d="M5.99902 516L-3.00098 507L5.99902 498L14.999 507L5.99902 516Z" fill="#E33B0E"/>
</svg>
