<svg width="312" height="417" viewBox="0 0 312 417" fill="none" xmlns="http://www.w3.org/2000/svg">
    <path d="M114.489 221.496L245.513 352.519" stroke="#E33B0E" stroke-width="4.0315"/>
    <path d="M245.511 221.496L114.487 352.519" stroke="#E33B0E" stroke-width="4.0315"/>
    <path d="M136.662 286L178.993 243.165M178.993 243.165L221.324 200.331L180.001 158L136.662 200.331L178.993 243.165ZM178.993 243.165L224.347 286" stroke="#E33B0E" stroke-width="4.0315"/>
    <path d="M136.662 286L178.993 328.834M178.993 328.834L221.324 371.669L180.001 414L136.662 371.669L178.993 328.834ZM178.993 328.834L224.347 286" stroke="#E33B0E" stroke-width="4.0315"/>
    <path d="M309.009 286L266.678 329.338L223.843 287.008L266.678 244.677L309.009 286Z" stroke="#E33B0E" stroke-width="4.0315"/>
    <path d="M52 286L94.3307 329.338L137.165 287.008L94.3307 244.677L52 286Z" stroke="#E33B0E" stroke-width="4.0315"/>
    <rect x="166.899" y="198.041" width="18.1417" height="18.1417" transform="rotate(-45 166.899 198.041)" fill="#E33B0E"/>
    <rect x="166.899" y="375.426" width="18.1417" height="18.1417" transform="rotate(-45 166.899 375.426)" fill="#E33B0E"/>
    <rect x="253.576" y="286.734" width="18.1417" height="18.1417" transform="rotate(-45 253.576 286.734)" fill="#E33B0E"/>
    <rect x="82.2383" y="286.734" width="18.1417" height="18.1417" transform="rotate(-45 82.2383 286.734)" fill="#E33B0E"/>
    <path d="M39.3904 43.0001L42.9996 39.3909L46.6089 43.0001L42.9996 46.6094L39.3904 43.0001Z" stroke="#E33B0E" stroke-width="1.29231"/>
    <path d="M44.9375 24.2616V39.1231L59.799 23.6154V8.75391L44.9375 24.2616Z" fill="#E33B0E" stroke="#E33B0E" stroke-width="0.646154"/>
    <path d="M41.0615 24.2616V39.1231L26.2 23.6154V8.75391L41.0615 24.2616Z" fill="#E33B0E" stroke="#E33B0E" stroke-width="0.646154"/>
    <path d="M35.8926 8.10769L42.6772 1L49.4618 8.10769L42.6772 14.8923L35.8926 8.10769Z" fill="#E33B0E" stroke="#E33B0E" stroke-width="0.646154"/>
    <path d="M44.9375 61.7384V46.8769L59.799 62.3846V77.2461L44.9375 61.7384Z" fill="#E33B0E" stroke="#E33B0E" stroke-width="0.646154"/>
    <path d="M41.0615 61.7384V46.8769L26.2 62.3846V77.2461L41.0615 61.7384Z" fill="#E33B0E" stroke="#E33B0E" stroke-width="0.646154"/>
    <path d="M35.8926 77.8923L42.6772 85L49.4618 77.8923L42.6772 71.1077L35.8926 77.8923Z" fill="#E33B0E" stroke="#E33B0E" stroke-width="0.646154"/>
    <path d="M61.7394 41.0617H46.8778L62.3855 26.2002H77.2471L61.7394 41.0617Z" fill="#E33B0E" stroke="#E33B0E" stroke-width="0.646154"/>
    <path d="M61.7394 44.9386H46.8778L62.3855 59.8002H77.2471L61.7394 44.9386Z" fill="#E33B0E" stroke="#E33B0E" stroke-width="0.646154"/>
    <path d="M77.8923 50.1079L85 43.3233L77.8923 36.5386L71.1077 43.3233L77.8923 50.1079Z" fill="#E33B0E" stroke="#E33B0E" stroke-width="0.646154"/>
    <path d="M24.2606 41.0617H39.1222L23.6145 26.2002H8.75293L24.2606 41.0617Z" fill="#E33B0E" stroke="#E33B0E" stroke-width="0.646154"/>
    <path d="M24.2606 44.9386H39.1222L23.6145 59.8002H8.75293L24.2606 44.9386Z" fill="#E33B0E" stroke="#E33B0E" stroke-width="0.646154"/>
    <path d="M8.10769 50.1079L1 43.3233L8.10769 36.5386L14.8923 43.3233L8.10769 50.1079Z" fill="#E33B0E" stroke="#E33B0E" stroke-width="0.646154"/>
</svg>
